<svg xmlns="http://www.w3.org/2000/svg" xmlns:xlink="http://www.w3.org/1999/xlink" fill="none" version="1.1"  viewBox="0 0 14.071136474609375 8.48583984375"><g><g transform="matrix(0.7071067690849304,-0.7071067690849304,0.7071067690849304,0.7071067690849304,-0.9999999657714582,0.4142135723984026)"><path d="M0,10.40950433816986C0,10.964390138169861,0.4498238,11.41421353816986,1.0047096,11.41421353816986L2,11.41421353816986L2,2.414213538169861C2,1.861928758169861,1.5522847,1.4142135381698608,1,1.4142135381698608C0.44771522,1.4142135381698608,0,1.861928758169861,0,2.414213638169861L0,10.40950433816986Z" fill="#FFFFFF" fill-opacity="1"/></g><g transform="matrix(0.7071068286895752,0.7071067094802856,-0.7071067094802856,0.7071068286895752,3.7073465830608026,-8.949622805791702)"><path d="M12.656702995302792,10.000383069735527L13.433122155612793,10.000383069735527C14.108952265612793,10.000383069735527,14.656818365612793,9.452509069735527,14.656810165612793,8.776679169735527L14.656715165612793,1.000407069735527C14.656708365612793,0.44811169973552706,14.208973865612792,0.00039625091852703856,13.656678555612793,0.0004131056335270386C13.104402185612793,0.00042995977852703857,12.656702995302792,0.44814280973552706,12.656702995302792,1.0004191697355271L12.656702995302792,10.000383069735527Z" fill="#FFFFFF" fill-opacity="1"/></g></g></svg>