<svg xmlns="http://www.w3.org/2000/svg" xmlns:xlink="http://www.w3.org/1999/xlink" fill="none" version="1.1" width="26" height="26" viewBox="0 0 26 26"><defs><clipPath id="master_svg0_4_03797"><rect x="0" y="0" width="26" height="26" rx="0"/></clipPath></defs><g clip-path="url(#master_svg0_4_03797)"><g><path d="M11.00000071525562,15L15,15L15,22L11,22L11.00000071525562,15Z" fill="#5B37F9" fill-opacity="1" style="mix-blend-mode:passthrough"/></g><g><path d="M22.355556,10.5863924L13.788946,2.31065351C13.354308,1.89644884,12.6458168,1.89644884,12.2111788,2.31065351L3.64456868,10.5968952C3.2258548,10.9958582,2.9937427458,11.5367765,3.00012834781,12.09871L3.00012834781,20.899559C2.9983412138,22.015944,3.92079824,22.938602,5.1001145999999995,23L8.5556469,23L8.5556469,13.548014C8.5556469,12.967994,9.0531054,12.497794,9.6667509,12.497794L16.333374,12.497794C16.947018999999997,12.497794,17.444477,12.967994,17.444477,13.548014L17.444477,23L20.900009,23C22.079325,22.938599,23.001783,22.015942,22.999996,20.899559L22.999996,12.098709C23.000875,11.5346708,22.769796,10.9923906,22.355556,10.5863924Z" fill="#5B37F9" fill-opacity="1" style="mix-blend-mode:passthrough"/></g></g></svg>