<svg xmlns="http://www.w3.org/2000/svg" xmlns:xlink="http://www.w3.org/1999/xlink" fill="none" version="1.1" viewBox="0 0 18 20"><g><path d="M18,8.1503296C18,8.1503296,18,15.9668,18,15.9668C18,18.1943,16.209101,20,14,20C14,20,4,20,4,20C1.7908601,20,0,18.1943,0,15.9668C0,15.9668,0,8.1503296,0,8.1503296C0,6.9393702,0.53964502,5.7925,1.46986,5.0265198C1.46986,5.0265198,6.4698601,0.90934801,6.4698601,0.90934801C7.9422998,-0.303114,10.0577,-0.30311701,11.5301,0.90934497C11.5301,0.90934497,16.5301,5.0265198,16.5301,5.0265198C17.4604,5.7925,18,6.9393702,18,8.1503296C18,8.1503296,18,8.1503296,18,8.1503296ZM12.25,15.25C12.25,15.25,12.25,17.5,12.25,17.5C12.25,18.052299,11.8023,18.5,11.25,18.5C11.25,18.5,6.75,18.5,6.75,18.5C6.1977201,18.5,5.75,18.052299,5.75,17.5C5.75,17.5,5.75,15.25,5.75,15.25C5.75,13.4551,7.20507,12,9,12C10.7949,12,12.25,13.4551,12.25,15.25C12.25,15.25,12.25,15.25,12.25,15.25Z" fill-rule="evenodd" fill="#333333" fill-opacity="1"/></g></svg>