<svg xmlns="http://www.w3.org/2000/svg" xmlns:xlink="http://www.w3.org/1999/xlink" fill="none" version="1.1" viewBox="0 0 19.5 21.5"><g><path d="M2.2198601,5.7765207C2.2198601,5.7765207,1.743114,5.1975508,1.743114,5.1975508C1.743114,5.1975508,1.743114,5.1975508,1.743114,5.1975508C1.743114,5.1975508,2.2198601,5.7765207,2.2198601,5.7765207C2.2198601,5.7765207,2.2198601,5.7765207,2.2198601,5.7765207ZM7.2198601,1.6593487C7.2198601,1.6593487,6.7431102,1.0803738,6.7431102,1.0803738C6.7431102,1.0803738,6.7431102,1.0803738,6.7431102,1.0803738C6.7431102,1.0803738,7.2198601,1.6593487,7.2198601,1.6593487C7.2198601,1.6593487,7.2198601,1.6593487,7.2198601,1.6593487ZM12.2801,1.6593457C12.2801,1.6593457,11.8034,2.2383208,11.8034,2.2383208C11.8034,2.2383208,11.8034,2.2383208,11.8034,2.2383208C11.8034,2.2383208,12.2801,1.6593457,12.2801,1.6593457C12.2801,1.6593457,12.2801,1.6593457,12.2801,1.6593457ZM17.2801,5.7765207C17.2801,5.7765207,16.8034,6.3555007,16.8034,6.3555007C16.8034,6.3555007,16.8034,6.3555007,16.8034,6.3555007C16.8034,6.3555007,17.2801,5.7765207,17.2801,5.7765207C17.2801,5.7765207,17.2801,5.7765207,17.2801,5.7765207ZM18,8.9003305C18,8.9003305,18,16.716801,18,16.716801C18,16.716801,19.5,16.716801,19.5,16.716801C19.5,16.716801,19.5,8.9003305,19.5,8.9003305C19.5,8.9003305,18,8.9003305,18,8.9003305C18,8.9003305,18,8.9003305,18,8.9003305ZM14.75,20C14.75,20,4.75,20,4.75,20C4.75,20,4.75,21.5,4.75,21.5C4.75,21.5,14.75,21.5,14.75,21.5C14.75,21.5,14.75,20,14.75,20C14.75,20,14.75,20,14.75,20ZM1.5,16.716801C1.5,16.716801,1.5,8.9003305,1.5,8.9003305C1.5,8.9003305,0,8.9003305,0,8.9003305C0,8.9003305,0,16.716801,0,16.716801C0,16.716801,1.5,16.716801,1.5,16.716801C1.5,16.716801,1.5,16.716801,1.5,16.716801ZM2.69661,6.3555007C2.69661,6.3555007,7.69661,2.2383208,7.69661,2.2383208C7.69661,2.2383208,6.7431102,1.0803738,6.7431102,1.0803738C6.7431102,1.0803738,1.743114,5.1975508,1.743114,5.1975508C1.743114,5.1975508,2.69661,6.3555007,2.69661,6.3555007C2.69661,6.3555007,2.69661,6.3555007,2.69661,6.3555007ZM11.8034,2.2383208C11.8034,2.2383208,16.8034,6.3555007,16.8034,6.3555007C16.8034,6.3555007,17.756901,5.1975508,17.756901,5.1975508C17.756901,5.1975508,12.7569,1.0803717,12.7569,1.0803717C12.7569,1.0803717,11.8034,2.2383208,11.8034,2.2383208C11.8034,2.2383208,11.8034,2.2383208,11.8034,2.2383208ZM7.69661,2.2383208C8.8921204,1.2538948,10.60788,1.2538937,11.8034,2.2383208C11.8034,2.2383208,12.7569,1.0803717,12.7569,1.0803717C11.0075,-0.36012924,8.4924803,-0.36011925,6.7431102,1.0803738C6.7431102,1.0803738,7.69661,2.2383208,7.69661,2.2383208C7.69661,2.2383208,7.69661,2.2383208,7.69661,2.2383208ZM4.75,20C2.9609001,20,1.5,18.5359,1.5,16.716801C1.5,16.716801,0,16.716801,0,16.716801C0,19.352701,2.12082,21.5,4.75,21.5C4.75,21.5,4.75,20,4.75,20C4.75,20,4.75,20,4.75,20ZM18,16.716801C18,18.5359,16.539101,20,14.75,20C14.75,20,14.75,21.5,14.75,21.5C17.3792,21.5,19.5,19.352701,19.5,16.716801C19.5,16.716801,18,16.716801,18,16.716801C18,16.716801,18,16.716801,18,16.716801ZM19.5,8.9003305C19.5,7.4665408,18.861099,6.1068106,17.756901,5.1975508C17.756901,5.1975508,16.8034,6.3555007,16.8034,6.3555007C17.559601,6.9781809,18,7.9122109,18,8.9003305C18,8.9003305,19.5,8.9003305,19.5,8.9003305C19.5,8.9003305,19.5,8.9003305,19.5,8.9003305ZM1.5,8.9003305C1.5,7.9122109,1.9404,6.9781909,2.69661,6.3555007C2.69661,6.3555007,1.743114,5.1975508,1.743114,5.1975508C0.63888699,6.1068106,0,7.4665408,0,8.9003305C0,8.9003305,1.5,8.9003305,1.5,8.9003305C1.5,8.9003305,1.5,8.9003305,1.5,8.9003305ZM14.5,20.75C14.5,20.75,14.5,16.75,14.5,16.75C14.5,16.75,13,16.75,13,16.75C13,16.75,13,20.75,13,20.75C13,20.75,14.5,20.75,14.5,20.75C14.5,20.75,14.5,20.75,14.5,20.75ZM5,16.75C5,16.75,5,20.75,5,20.75C5,20.75,6.5,20.75,6.5,20.75C6.5,20.75,6.5,16.75,6.5,16.75C6.5,16.75,5,16.75,5,16.75C5,16.75,5,16.75,5,16.75ZM9.75,12.000001C7.1266499,12.000001,5,14.126601,5,16.75C5,16.75,6.5,16.75,6.5,16.75C6.5,14.955101,7.95507,13.500001,9.75,13.500001C9.75,13.500001,9.75,12.000001,9.75,12.000001C9.75,12.000001,9.75,12.000001,9.75,12.000001ZM14.5,16.75C14.5,14.126601,12.3734,12.000001,9.75,12.000001C9.75,12.000001,9.75,13.500001,9.75,13.500001C11.5449,13.500001,13,14.955101,13,16.75C13,16.75,14.5,16.75,14.5,16.75C14.5,16.75,14.5,16.75,14.5,16.75Z" fill="#999999" fill-opacity="1"/></g></svg>