<svg xmlns="http://www.w3.org/2000/svg" xmlns:xlink="http://www.w3.org/1999/xlink" fill="none" version="1.1" width="15" height="15" viewBox="0 0 15 15"><defs><clipPath id="master_svg0_1_2762"><rect x="0" y="0" width="15" height="15" rx="0"/></clipPath></defs><g clip-path="url(#master_svg0_1_2762)"><g><g><path d="M3.124979019165039,5.625C3.124979019165039,5.625,2.499979019165039,5.625,2.499979019165039,5.625C1.809622769165039,5.625,1.249978780746459,6.1846442,1.249978780746459,6.875C1.249978780746459,6.875,1.249978780746459,11.25,1.249978780746459,11.25C1.249978780746459,11.940375,1.809622769165039,12.5,2.499979019165039,12.5C2.499979019165039,12.5,3.124979019165039,12.5,3.124979019165039,12.5C3.815334819165039,12.5,4.374979019165039,11.940375,4.374979019165039,11.25C4.374979019165039,11.25,4.374979019165039,6.875,4.374979019165039,6.875C4.374979019165039,6.1846442,3.815335319165039,5.625,3.124979019165039,5.625C3.124979019165039,5.625,3.124979019165039,5.625,3.124979019165039,5.625ZM9.92304991916504,13.125C9.92304991916504,13.125,7.9444308191650395,13.125,7.9444308191650395,13.125C7.450868119165039,13.125,6.968324619165039,12.978875,6.557699719165039,12.705125C6.557699719165039,12.705125,5.590824619165039,12.060563,5.590824619165039,12.060563C5.416949719165039,11.944626,5.3125124191650395,11.7495003,5.3125124191650395,11.5405006C5.3125124191650395,11.5405006,5.3125124191650395,6.4159756,5.3125124191650395,6.4159756C5.3125124191650395,6.3072128,5.340887119165039,6.200325,5.394824019165039,6.1058941C5.394824019165039,6.1058941,7.812492819165039,1.875,7.812492819165039,1.875C7.812492819165039,1.875,8.52961821916504,1.875,8.52961821916504,1.875C9.73554321916504,1.875,10.486906019165039,3.1831437,9.87927431916504,4.2248000999999995C9.87927431916504,4.2248000999999995,9.062493819165038,5.625,9.062493819165038,5.625C9.062493819165038,5.625,12.14901801916504,5.625,12.14901801916504,5.625C12.962235019165039,5.625,13.558933019165039,6.3892379,13.361700019165038,7.1781688C13.361700019165038,7.1781688,12.348406019165038,11.2313128,12.348406019165038,11.2313128C12.070174019165039,12.34425,11.07021901916504,13.125,9.92304991916504,13.125C9.92304991916504,13.125,9.92304991916504,13.125,9.92304991916504,13.125Z" fill="#FFFFFF" fill-opacity="1"/></g></g></g></svg>