<svg xmlns="http://www.w3.org/2000/svg" xmlns:xlink="http://www.w3.org/1999/xlink" fill="none" version="1.1" width="12" height="11" viewBox="0 0 12 11"><g><path d="M11.976538,5.1365762L10.732723,10.198317C10.63731,10.644823,10.265494,10.96156,9.8366508,10.961646L3.1340666,10.961662L3.1340666,3.9373097L4.5635753,3.9373245C5.6059279,3.9373245,6.4503212,2.2628624,6.4503212,1.1496726C6.4503212,0.51449966,6.9320798,0,7.5268345,0L7.615303,0C8.2100563,0,8.6918173,0.51449949,8.6918173,1.1496726L8.6918173,3.9373245L11.081344,3.9373245C11.670841,3.9373245,12.107928,4.5219831,11.976538,5.1365762ZM2.2773869,11.000031L0.48789692,11.000031C0.21811162,11.000031,0,10.766982,0,10.478863L0,4.5050678C0,4.216948,0.21811162,3.9841282,0.48789692,3.9841282L2.2773869,3.9841282L2.2773869,11.000031Z" fill="#FFFFFF" fill-opacity="1" style="mix-blend-mode:passthrough"/></g></svg>