<svg xmlns="http://www.w3.org/2000/svg" xmlns:xlink="http://www.w3.org/1999/xlink" fill="none" version="1.1" viewBox="0 0 93 25"><defs><linearGradient x1="82.41433936357498" y1="12.5" x2="0" y2="0" gradientUnits="userSpaceOnUse" id="master_svg0_26_9454"><stop offset="24.18348640203476%" stop-color="#45E0FF" stop-opacity="1"/><stop offset="65.71428775787354%" stop-color="#FF50A5" stop-opacity="1"/></linearGradient></defs><g><path d="M3.276,21.112Q2.2680001,21.112,1.4840001,20.23Q0.70000005,19.348,0.70000005,17.472Q0.70000005,16.156,1.0500001,14.84Q1.4000001,13.524,1.7640001,12.432Q2.3240001,10.639999,2.7440002,9.1279993Q3.164,7.6159992,3.164,6.2439995Q3.164,5.2919998,2.954,4.9279995Q2.7440002,4.5639992,2.408,4.5639992Q2.0440001,4.5639992,1.61,4.9559994Q1.176,5.3479996,0.75600004,6.1599998L0.56,6.1039991Q0.616,4.4799995,1.26,3.3039989Q1.904,2.1280003,2.8840001,1.4839993Q3.8640001,0.84000015,4.9000001,0.84000015Q6.0760002,0.84000015,6.9160004,1.7779999Q7.756,2.7159996,7.756,5.0119991Q7.756,6.2159996,7.5180001,7.5319996Q7.2800002,8.8479996,6.9720001,10.164Q7.9240003,9.7719994,8.9879999,9.6040001Q10.052,9.4359999,11.256001,9.4359999L11.984,9.4359999Q12.348001,8.0359993,12.614,6.6779995Q12.88,5.3199997,12.88,4.1439991Q12.88,3.723999,12.838,3.3599987Q12.796,2.9960003,12.740001,2.6599998L12.740001,2.4359989Q13.160001,1.6800003,13.958,1.2319984Q14.756001,0.78399849,15.568001,0.78399849Q16.492001,0.78399849,17.192001,1.3859997Q17.892,1.987999,17.892,3.3039989Q17.892,4.2840004,17.514,5.8239994Q17.136,7.3639994,16.66,8.9879999Q16.1,10.976,15.638,12.837999Q15.176001,14.7,15.176001,15.988Q15.176001,16.855999,15.456,17.360001Q15.736,17.864,16.352001,17.864Q17.192001,17.864,17.612001,17.052L17.780001,17.136Q17.752001,18.312,17.136,19.208Q16.52,20.104,15.610001,20.608Q14.700001,21.112,13.748,21.112Q12.908,21.112,12.166,20.677999Q11.424001,20.243999,10.962,19.32Q10.5,18.396,10.5,16.911999Q10.5,15.931999,10.71,14.77Q10.92,13.608,11.200001,12.403999Q9.9120007,12.32,8.6800003,12.32Q8.0640001,12.32,7.5040002,12.348Q6.9440002,12.375999,6.4400001,12.432Q6.1880002,13.552,6.006,14.629999Q5.8240004,15.708,5.8240004,16.716Q5.8240004,17.275999,5.8940001,17.822001Q5.9640002,18.368,6.132,18.872Q5.684,19.964001,4.8860002,20.538Q4.0880003,21.112,3.276,21.112ZM21.540001,21.112Q20.280001,21.112,19.426001,20.076Q18.572001,19.040001,18.572001,17.304001Q18.572001,16.351999,18.796,15.26Q19.02,14.167999,19.243999,13.188Q19.440001,12.46,19.566,11.83Q19.691999,11.2,19.691999,10.808Q19.691999,10.304,19.482,10.08Q19.271999,9.8559999,18.992001,9.8559999Q18.712,9.8559999,18.431999,10.038Q18.152,10.219999,17.983999,10.584L17.76,10.5Q17.76,9.3519993,18.32,8.54Q18.879999,7.7279997,19.747999,7.3079996Q20.615999,6.8879995,21.512001,6.8879995Q22.24,6.8879995,22.912001,7.1819992Q23.584,7.4759998,24.018,8.092Q24.452,8.7079992,24.452,9.632Q24.452,10.191999,24.298,10.976Q24.144001,11.759999,23.948,12.599999Q23.751999,13.468,23.57,14.35Q23.388,15.232,23.388,15.903999Q23.388,16.52,23.584,16.911999Q23.780001,17.304001,24.172001,17.304001Q24.9,17.304001,25.810001,15.96Q26.720001,14.615999,27.279999,12.348Q27.392,11.9,27.476,11.396Q27.560001,10.891999,27.560001,10.36Q27.560001,9.9399996,27.504,9.5059996Q27.448,9.0719995,27.336,8.6239996L27.336,8.4279995Q27.784,7.6719999,28.498001,7.2799997Q29.212,6.8879995,29.940001,6.8879995Q30.92,6.8879995,31.704,7.5599995Q32.487999,8.2319994,32.487999,9.5199995Q32.487999,10.276,32.208,11.27Q31.928001,12.264,31.591999,13.327999Q31.256001,14.364,30.976,15.372Q30.695999,16.379999,30.695999,17.164Q30.695999,18.312,31.507999,18.312Q31.732,18.312,32.054001,18.186001Q32.375999,18.059999,32.655998,17.667999L32.852001,17.723999Q32.852001,18.732,32.306,19.502001Q31.76,20.271999,30.92,20.691999Q30.08,21.112,29.184,21.112Q28.035999,21.112,27.125999,20.271999Q26.216,19.431999,26.216,17.528L26.216,17.472Q25.068001,19.431999,23.836,20.271999Q22.604,21.112,21.540001,21.112ZM38.068001,21.252001Q36.332001,21.252001,35.184002,20.775999Q34.036003,20.299999,33.476002,19.558001Q32.916004,18.816,32.916004,18.059999Q32.916004,16.996,33.868004,16.17Q34.820004,15.344,36.444004,15.344Q36.444004,16.771999,36.808002,17.625999Q37.172001,18.48,37.746002,18.844Q38.320004,19.208,38.852001,19.208Q39.496002,19.208,39.930004,18.83Q40.364002,18.452,40.364002,17.892Q40.364002,17.108,39.552002,16.52Q38.740002,15.931999,37.452003,15.204Q36.808002,14.812,36.052002,14.294Q35.296001,13.775999,34.764004,13.034Q34.232002,12.292,34.232002,11.256Q34.232002,10.164,34.862003,9.3239994Q35.492004,8.4839993,36.528004,7.9099998Q37.564003,7.3359995,38.768002,7.0419998Q39.972004,6.7479992,41.120003,6.7479992Q43.276001,6.7479992,44.368004,7.6159992Q45.460003,8.4839993,45.460003,9.4639997Q45.460003,10.304,44.620003,10.976Q43.780003,11.648,42.044003,11.648Q42.072002,10.219999,41.456001,9.5619993Q40.840004,8.9039993,40.140003,8.9039993Q39.636002,8.9039993,39.300003,9.2119999Q38.964005,9.5199995,38.964005,10.108Q38.964005,10.78,39.398003,11.27Q39.832001,11.759999,40.490002,12.138Q41.148003,12.516,41.848003,12.851999Q42.800003,13.299999,43.640003,13.804Q44.480003,14.308,45.012001,14.952Q45.544003,15.596,45.544003,16.52Q45.544003,17.780001,44.522003,18.858Q43.500004,19.936001,41.792004,20.594Q40.084003,21.252001,38.068001,21.252001ZM48.968002,21.112Q47.764004,21.112,47.036003,20.299999Q46.308002,19.487999,46.308002,18.087999Q46.308002,17.332001,46.504002,16.114Q46.700005,14.896,46.994003,13.426Q47.288002,11.955999,47.568005,10.429999Q47.848003,8.9039993,48.044003,7.4759998Q48.240002,6.0479994,48.240002,4.9559994Q48.240002,3.5839996,47.876003,2.9679985L47.876003,2.7999992Q48.492004,2.0999985,49.220001,1.7639999Q49.948002,1.4279995,50.648003,1.4279995Q51.712002,1.4279995,52.468002,2.184Q53.224003,2.9399986,53.224003,4.4519997Q53.224003,5.2639999,53.000004,6.4399996Q52.776005,7.6159992,52.468002,8.9039993Q52.160004,10.191999,51.852005,11.311999Q52.384003,10.276,53.266003,9.2539997Q54.148003,8.2319994,55.282005,7.5599995Q56.416004,6.8879995,57.648003,6.8879995Q59.048004,6.8879995,59.538002,7.7559996Q60.028004,8.6239996,60.028004,9.9119997Q60.028004,11.087999,59.776005,12.417999Q59.524002,13.747999,59.272003,14.966Q59.020004,16.184,59.020004,16.996Q59.020004,18.172001,59.720001,18.172001Q60.028004,18.172001,60.266003,17.99Q60.504005,17.808001,60.616005,17.584L60.812004,17.723999Q60.812004,18.816,60.280003,19.572001Q59.748001,20.327999,58.922005,20.719999Q58.096004,21.112,57.228004,21.112Q56.080002,21.112,55.156002,20.341999Q54.232002,19.572001,54.232002,17.836Q54.232002,16.855999,54.498001,15.708Q54.764004,14.559999,55.016003,13.482Q55.268005,12.403999,55.268005,11.676Q55.268005,10.724,54.596004,10.724Q53.980003,10.724,53.252003,11.34Q52.524002,11.955999,51.978004,12.88Q51.432003,13.804,51.264004,14.7Q51.208004,14.924,51.208004,15.232Q51.208004,15.931999,51.418003,16.576Q51.628002,17.219999,51.628002,18.087999Q51.628002,19.375999,50.956001,20.243999Q50.284004,21.112,48.968002,21.112ZM66.559998,6.0199995Q65.440002,6.0199995,64.725998,5.3339996Q64.012001,4.6479988,64.012001,3.6119995Q64.012001,2.4919987,64.852005,1.6800003Q65.692001,0.86800003,66.896004,0.86800003Q68.015999,0.86800003,68.730003,1.5679989Q69.444,2.2679996,69.444,3.3039989Q69.444,4.4239998,68.604004,5.2219992Q67.764,6.0199995,66.559998,6.0199995ZM64.599998,21.112Q63.508003,21.112,62.639999,20.341999Q61.772003,19.572001,61.772003,17.864Q61.772003,16.883999,62.038002,16.029999Q62.304001,15.176,62.653999,14.364Q63.004002,13.552,63.27,12.782Q63.536003,12.012,63.536003,11.256Q63.536003,10.584,63.312,10.29Q63.088001,9.9959993,62.780003,9.9959993Q62.304001,9.9959993,61.856003,10.612L61.66,10.5Q61.772003,9.3800001,62.374001,8.5819998Q62.976002,7.7839994,63.858002,7.3359995Q64.739998,6.8879995,65.608002,6.8879995Q66.672005,6.8879995,67.456001,7.5739994Q68.240005,8.2599993,68.240005,9.7999992Q68.240005,10.724,67.973999,11.745999Q67.708,12.768,67.358002,13.775999Q67.008003,14.784,66.742004,15.652Q66.475998,16.52,66.475998,17.136Q66.475998,17.667999,66.686005,17.892Q66.896004,18.115999,67.148003,18.115999Q67.400002,18.115999,67.638,17.962Q67.875999,17.808001,67.987999,17.612L68.183998,17.667999Q68.183998,18.704,67.638,19.473999Q67.092003,20.243999,66.279999,20.677999Q65.468002,21.112,64.599998,21.112ZM75.220001,21.195999Q73.176003,21.195999,71.832001,20.370001Q70.487999,19.544001,69.816002,18.186001Q69.143997,16.827999,69.143997,15.26Q69.143997,13.775999,69.718002,12.278Q70.292,10.78,71.398003,9.5479994Q72.503998,8.316,74.085999,7.5599995Q75.667999,6.8039999,77.655998,6.8039999Q80.120003,6.8039999,81.253998,7.9099998Q82.388,9.0159998,82.388,10.584Q82.388,11.927999,81.674004,13.062Q80.959999,14.195999,79.784004,14.882Q78.608002,15.568,77.208,15.568Q76.480003,15.568,75.723999,15.344Q74.968002,15.12,74.239998,14.643999Q74.379997,16.379999,75.248001,17.164Q76.115997,17.948,77.32,17.948Q78.160004,17.948,79,17.625999Q79.840004,17.304001,80.554001,16.785999Q81.267998,16.268,81.660004,15.68L81.856003,15.82Q81.856003,17.275999,81.253998,18.298Q80.652,19.32,79.671997,19.964001Q78.692001,20.608,77.529999,20.902Q76.368004,21.195999,75.220001,21.195999ZM75.863998,13.636Q76.760002,13.636,77.32,13.118Q77.880005,12.599999,78.160004,11.9Q78.440002,11.2,78.440002,10.667999Q78.440002,10.023999,78.076004,9.5899992Q77.711998,9.1559992,77.068001,9.1559992Q76.564003,9.1559992,75.961998,9.5199995Q75.360001,9.8839998,74.884003,10.766Q74.408005,11.648,74.267998,13.216Q75.164001,13.636,75.863998,13.636Z" fill="url(#master_svg0_26_9454)" fill-opacity="1"/></g></svg>