<svg xmlns="http://www.w3.org/2000/svg" xmlns:xlink="http://www.w3.org/1999/xlink" fill="none" version="1.1" viewBox="0 0 18.20001220703125 21.505126953125"><g><g><path d="M11.158889103515625,13.199595500000001C14.327418103515624,13.199595500000001,16.905125103515626,15.7919798,16.905655103515624,18.978652L16.905655103515624,19.3928652C16.905655103515624,19.5130892,16.883947103515624,19.5477362,16.802948103515625,19.6112604C16.698124103515624,19.6936846,16.427595103515625,19.8506556,15.795478103515626,19.976126700000002C14.640301103515625,20.2050219,12.949360103515625,20.2050219,11.159418103515625,20.2050219L7.041124803515625,20.2050219C5.212536303515625,20.2050219,3.486124503515625,20.2050219,2.351595203515625,19.9766512C1.743830403515625,19.8543291,1.489712603515625,19.7031336,1.391771703515625,19.6233358C1.328242303515625,19.5718851,1.295418603515625,19.5382872,1.295418603515625,19.3928652L1.295418603515625,18.978652C1.295418603515625,15.7919798,3.873124803515625,13.199595500000001,7.041124803515625,13.199595500000001L11.158889103515625,13.199595500000001ZM11.158905103515625,12L7.040618903515625,12C3.212971403515625,12,0.100006103515625,15.130497,0.100006103515625,18.978652L0.100006103515625,19.3928652C0.100006103515625,21.4051409,3.163183003515625,21.4051409,7.040595103515625,21.4051409L11.158889103515625,21.4051409C14.883830103515624,21.4051409,18.100006103515625,21.4051409,18.100006103515625,19.3928652L18.100006103515625,18.978652C18.100008103515624,15.1310215,14.986553103515625,12,11.158905103515625,12Z" fill="#999999" fill-opacity="1"/><path d="M18.200006103515626,19.3928652L18.200006103515626,18.9786525Q18.200006103515626,17.5412006,17.645878103515624,16.2261868Q17.110779103515625,14.9563429,16.135731103515624,13.975947Q15.160585103515626,12.99545652,13.897436103515625,12.45734128Q12.589154103515625,11.89999917,11.158908103515625,11.89999898L7.040619403515625,11.89999999Q5.610353903515625,11.89999999,4.302168803515625,12.45726714Q3.039077503515625,12.99532491,2.064039503515625,13.9757524Q1.089083433515625,14.9560976,0.554059113515625,16.2259707Q0.000005273515625001113,17.5410104,0.000005083515625003976,18.9786525L0.0000060935156249997124,19.3928652Q0.0000060935156249997124,20.8299198,2.0965508035156253,21.2516441Q2.942014503515625,21.421711000000002,4.316570803515625,21.473629000000003Q5.150875103515625,21.5051413,7.040595503515625,21.5051413L11.158890103515626,21.5051413Q12.991461103515626,21.5051413,13.818705103515626,21.4736271Q15.189034103515626,21.4214239,16.045734103515628,21.2517014Q18.200006103515626,20.8249149,18.200006103515626,19.3928652ZM17.461571103515624,16.303850699999998Q18.000008103515626,17.5816202,18.000008103515626,18.9786525L18.000008103515626,19.3928652Q18.000008103515626,20.6606503,16.006867103515624,21.0555143Q15.165650103515626,21.2221689,13.811091103515626,21.2737713Q12.987640103515625,21.3051414,11.158890103515626,21.3051414L7.040595503515625,21.3051414Q5.154653103515625,21.3051414,4.324119603515625,21.2737713Q2.965665803515625,21.2224617,2.135991303515625,21.0555706Q0.200006113515625,20.6661444,0.200006113515625,19.3928652L0.200005091515625,18.9786525Q0.20000528551562502,17.5814223,0.738368513515625,16.3036242Q1.258301603515625,15.0695696,2.205850103515625,14.1167836Q3.153366303515625,13.16403,4.380550403515625,12.64126807Q5.651177903515625,12.10000001,7.040619403515625,12.10000001L11.158908103515625,12.099998988Q12.548329103515625,12.099999182,13.819051103515624,12.64134043Q15.046297103515625,13.1641608,15.993923103515625,14.116981299999999Q16.941564103515624,15.069818699999999,17.461571103515624,16.303850699999998ZM11.158890103515626,13.0995954L7.041125303515625,13.0995954Q5.853811703515625,13.0995959,4.767656303515625,13.5624523Q3.718953103515625,14.0093486,2.909358303515625,14.8236148Q2.0998073035156253,15.6378374,1.655528703515625,16.692475299999998Q1.195418703515625,17.7846942,1.195418703515625,18.9786525L1.195418703515625,19.3928652Q1.195418703515625,19.592997099999998,1.328607203515625,19.7008619Q1.608811703515625,19.9291601,2.331862203515625,20.0746851Q3.476159803515625,20.3050222,7.041125303515625,20.3050222L11.159418103515625,20.3050222Q14.650111103515625,20.3050222,15.814948103515626,20.074213999999998Q16.565411103515626,19.9252515,16.864660103515625,19.6899486Q17.005655103515625,19.5793715,17.005655103515625,19.3928652L17.005655103515625,18.9786353Q17.005457103515624,17.784657,16.545227103515625,16.692465300000002Q16.100817103515624,15.637813099999999,15.291182103515625,14.8236103Q14.481479103515625,14.0093389,13.432669103515625,13.5624504Q12.346386103515625,13.0995954,11.158890103515626,13.0995954ZM4.846062203515625,13.7464428Q5.894648503515625,13.299596,7.041125303515625,13.2995962L11.158890103515626,13.2995955Q12.305553103515624,13.2995955,13.354271103515625,13.7464441Q14.367177103515624,14.1780341,15.149362103515625,14.964633Q16.805265103515627,16.629877999999998,16.805656103515624,18.9786692L16.805656103515624,19.3928652Q16.805656103515624,19.4820533,16.741238103515624,19.5325732Q16.479462103515626,19.738410000000002,15.776009103515625,19.878040300000002Q14.630491103515626,20.1050224,11.159418103515625,20.1050224L7.041125303515625,20.1050224Q3.496089903515625,20.1050224,2.371329103515625,19.8786178Q1.696781303515625,19.7428546,1.454936303515625,19.5458102Q1.395418803515625,19.497608200000002,1.395418803515625,19.3928652L1.395418803515625,18.9786525Q1.395418803515625,16.6299496,3.051185803515625,14.964628900000001Q3.833263603515625,14.1780386,4.846062203515625,13.7464428Z" fill-rule="evenodd" fill="#999999" fill-opacity="1"/></g><g><path d="M14.100006103515625,5Q14.100006103515625,5.1227431,14.093984603515626,5.2453384Q14.087961203515626,5.3679338,14.075930603515625,5.4900861Q14.063899003515624,5.6122379,14.045887903515625,5.7336521Q14.027877803515626,5.8550663,14.003932003515626,5.9754515Q13.979986203515624,6.0958357,13.950161003515625,6.2149005Q13.920337703515624,6.3339653,13.884707403515625,6.4514232Q13.849077203515625,6.568881,13.807725903515625,6.6844492Q13.766374603515626,6.8000164,13.719403303515625,6.9134164Q13.672431903515625,7.0268164,13.619952203515625,7.1377745Q13.567472503515624,7.248733,13.509612103515625,7.3569832Q13.451751703515624,7.4652328,13.388648003515625,7.5705128Q13.325545303515625,7.6757927,13.257352803515625,7.7778502Q13.189160303515624,7.8799076,13.116043103515626,7.9784956Q13.042924903515624,8.0770836,12.965058303515624,8.1719656Q12.887190803515624,8.2668476,12.804760903515625,8.3577938Q12.722332003515625,8.448741,12.635540003515626,8.5355339Q12.548747103515625,8.6223259,12.457800903515626,8.7047558Q12.366853703515625,8.7871857,12.271972703515624,8.8650532Q12.177090603515625,8.9429207,12.078502203515626,9.0160379Q11.979913703515624,9.0891552,11.877856303515625,9.1573477Q11.775798803515624,9.2255402,11.670518903515624,9.2886429Q11.565238903515624,9.3517456,11.456989303515625,9.409606Q11.348739103515625,9.4674664,11.237781003515625,9.5199461Q11.126822503515626,9.5724258,11.013423003515625,9.6193972Q10.900023003515624,9.6663685,10.784454803515626,9.7077198Q10.668887103515626,9.7490711,10.551429303515626,9.7847013Q10.433971403515624,9.8203316,10.314906603515624,9.8501568Q10.195841803515625,9.8799801,10.075457603515625,9.9039268Q9.955072403515626,9.9278727,9.833658203515625,9.9458828Q9.712244003515625,9.9638939,9.590092203515624,9.9759245Q9.467939903515624,9.9879551,9.345344503515625,9.9939775Q9.222749203515626,10,9.100006103515625,10Q8.977263003515624,10,8.854667703515625,9.9939775Q8.732072303515626,9.9879551,8.609920503515625,9.9759245Q8.487768203515625,9.9638929,8.366353503515626,9.9458818Q8.244938803515625,9.9278717,8.124554203515626,9.9039259Q8.004169503515625,9.8799801,7.8851047035156245,9.8501549Q7.766040303515625,9.8203316,7.6485827035156255,9.7847013Q7.531124603515625,9.7490711,7.415556703515625,9.7077198Q7.299988503515625,9.6663685,7.186588803515625,9.6193972Q7.073188803515626,9.5724258,6.962230703515624,9.5199461Q6.851272103515625,9.4674664,6.743022403515625,9.409606Q6.6347728035156255,9.3517456,6.529492403515626,9.2886419Q6.424212003515625,9.2255392,6.322154803515625,9.1573467Q6.220097503515625,9.0891542,6.121509303515625,9.016037Q6.022921303515625,8.9429188,5.928039503515625,8.8650522Q5.8331578035156255,8.7871847,5.742211103515625,8.7047548Q5.651264503515625,8.6223259,5.564472103515625,8.5355339Q5.477679603515625,8.448741,5.395250303515625,8.3577948Q5.312821103515625,8.2668476,5.234953803515625,8.1719666Q5.157086403515625,8.0770845,5.083968283515625,7.9784961Q5.0108503135156255,7.8799076,4.942657883515625,7.7778502Q4.874465463515625,7.6757927,4.811362863515625,7.5705128Q4.748260383515625,7.4652328,4.690399703515625,7.3569832Q4.632539033515625,7.248733,4.580059553515625,7.1377749Q4.527580143515625,7.0268164,4.480608373515625,6.9134169Q4.433636603515625,6.8000169,4.392285703515625,6.6844487Q4.350934833515625,6.568881,4.315304403515625,6.4514232Q4.279673963515625,6.3339653,4.249849823515625,6.2149005Q4.220025673515625,6.0958357,4.196079686515625,5.9754515Q4.172133699515625,5.8550663,4.154123544515625,5.7336521Q4.136113394515625,5.6122379,4.124082468515625,5.4900861Q4.112051540515625,5.3679338,4.106028821815625,5.2453384Q4.100006103515625,5.1227431,4.100006103515625,5Q4.100006103515625,4.8772569,4.106028821815625,4.7546616Q4.112051540515625,4.6320662,4.124082468515625,4.5099144Q4.136113394515625,4.3877621,4.154123544515625,4.2663474Q4.172133699515625,4.1449327,4.196079686515625,4.0245481Q4.220025673515625,3.9041634,4.249849813515625,3.7850986Q4.279673963515625,3.6660342,4.315304403515625,3.5485766Q4.350934833515625,3.4311185,4.392285733515625,3.3155506Q4.433636603515625,3.1999824,4.480608373515625,3.0865827Q4.527580143515625,2.9731827,4.580059553515625,2.8622246Q4.632539033515625,2.751266,4.690399703515625,2.6430163Q4.748260383515625,2.5347667,4.811362983515625,2.4294863Q4.874465463515625,2.3242059,4.942657883515625,2.2221487Q5.0108503135156255,2.1200914,5.083968283515625,2.0215032Q5.157086403515625,1.9229152,5.234953803515625,1.8280334Q5.312821103515625,1.7331517,5.395250303515625,1.642205Q5.477679603515625,1.5512584,5.564472103515625,1.464466Q5.651264503515625,1.3776735,5.742211103515625,1.2952442Q5.833157903515625,1.212815,5.9280397035156245,1.1349477Q6.022921303515625,1.0570803,6.121509503515625,0.98396218Q6.220097503515625,0.91084421,6.322154803515625,0.84265178Q6.424212003515625,0.77445936,6.529492403515626,0.71135676Q6.6347728035156255,0.64825428,6.743022403515625,0.5903936Q6.851272103515625,0.53253293,6.962230203515626,0.48005345Q7.073188803515626,0.42757404,7.186588503515625,0.38060227Q7.299988303515625,0.3336305,7.415556403515625,0.2922796Q7.531124603515625,0.25092873,7.6485827035156255,0.2152983Q7.766040603515625,0.17966786,7.885105103515626,0.14984372Q8.004169903515624,0.12001957,8.124554603515625,0.096073583Q8.244938803515625,0.072127596,8.366353503515626,0.054117441Q8.487768203515625,0.036107291,8.609920503515625,0.024076365Q8.732072303515626,0.012045437,8.854667703515625,0.0060227183Q8.977263003515624,0,9.100006103515625,0Q9.222749203515626,0,9.345344503515625,0.0060227183Q9.467939903515624,0.012045437,9.590092203515624,0.024076365Q9.712244003515625,0.036107291,9.833658203515625,0.054117441Q9.955072403515626,0.072127596,10.075457603515625,0.096073583Q10.195841803515625,0.12001957,10.314906603515624,0.14984371Q10.433971403515624,0.17966786,10.551429303515626,0.2152983Q10.668887103515626,0.25092873,10.784455303515625,0.29227963Q10.900022503515626,0.3336305,11.013422503515624,0.38060227Q11.126822503515626,0.42757404,11.237780603515624,0.48005345Q11.348739103515625,0.53253293,11.456989303515625,0.5903936Q11.565238903515624,0.64825428,11.670518903515624,0.71135688Q11.775798803515624,0.77445936,11.877856303515625,0.84265178Q11.979913703515624,0.91084421,12.078501703515624,0.98396218Q12.177089703515625,1.0570803,12.271971703515625,1.1349477Q12.366853703515625,1.212815,12.457799903515625,1.2952442Q12.548747103515625,1.3776735,12.635540003515626,1.464466Q12.722332003515625,1.5512584,12.804761903515624,1.642205Q12.887191803515625,1.7331518,12.965059303515625,1.8280336Q13.042926803515625,1.9229152,13.116044003515626,2.0215034Q13.189161303515625,2.1200914,13.257353803515626,2.2221487Q13.325546303515624,2.3242059,13.388649003515624,2.4294863Q13.451751703515624,2.5347667,13.509612103515625,2.6430163Q13.567472503515624,2.751266,13.619952203515625,2.8622241Q13.672431903515625,2.9731827,13.719403303515625,3.0865824Q13.766374603515626,3.1999822,13.807725903515625,3.3155503Q13.849077203515625,3.4311185,13.884707403515625,3.5485766Q13.920337703515624,3.6660345,13.950162903515626,3.785099Q13.979986203515624,3.9041638,14.003932903515626,4.0245485Q14.027878803515625,4.1449327,14.045888903515625,4.2663474Q14.063900003515625,4.3877621,14.075930603515625,4.5099144Q14.087961203515626,4.6320662,14.093984603515626,4.7546616Q14.100006103515625,4.8772569,14.100006103515625,5ZM12.600006103515625,5Q12.600006103515625,4.8280563,12.583153703515626,4.65694Q12.566299403515625,4.4858236,12.532754903515626,4.3171835Q12.499210403515624,4.1485434,12.449296903515625,3.9840033Q12.399384503515625,3.8194633,12.333583803515625,3.6606076Q12.267784103515625,3.5017521,12.186730403515625,3.3501112Q12.105676603515626,3.1984701,12.010149503515624,3.0555038Q11.914622803515625,2.9125381,11.805542503515625,2.7796235Q11.696462603515625,2.646709,11.574879603515626,2.5251262Q11.453296703515626,2.4035437,11.320382603515625,2.2944636Q11.187467603515625,2.1853836,11.044501303515625,2.0898564Q10.901535503515625,1.9943296,10.749894103515626,1.9132756Q10.598253203515625,1.8322217,10.439397303515625,1.7664216Q10.280542403515625,1.7006216,10.116002603515625,1.6507088Q9.951462303515626,1.6007962,9.782821703515625,1.5672514Q9.614182503515625,1.5337069,9.443066103515626,1.5168535Q9.271950703515625,1.5,9.100006103515625,1.5Q8.928062403515625,1.5,8.756946103515624,1.5168535Q8.585829703515625,1.5337069,8.417189603515624,1.5672514Q8.248549503515626,1.6007961,8.084009403515624,1.6507088Q7.919469403515625,1.7006214,7.7606137035156255,1.7664214Q7.601758203515625,1.8322217,7.450117303515626,1.9132755Q7.298476203515625,1.9943295,7.155509903515625,2.0898561Q7.012544203515625,2.1853833,6.879629603515625,2.2944634Q6.7467151035156245,2.4035435,6.625132303515625,2.525126Q6.503549803515625,2.646709,6.394469703515625,2.7796235Q6.285389703515625,2.9125381,6.189862503515625,3.0555038Q6.094335703515625,3.1984701,6.013281703515625,3.350111Q5.932227803515625,3.5017521,5.866427703515625,3.6606076Q5.8006276035156255,3.8194633,5.750714903515625,3.9840035Q5.700802203515625,4.1485434,5.667257503515625,4.3171835Q5.633713003515625,4.4858236,5.616859603515625,4.65694Q5.600006103515625,4.8280563,5.600006103515625,5Q5.600006103515625,5.1719446,5.616859603515625,5.3430605Q5.633713003515625,5.5141764,5.667257503515625,5.6828156Q5.700802203515625,5.8514562,5.750714903515625,6.015996Q5.800627503515625,6.1805363,5.8664275035156255,6.3393912Q5.932227803515625,6.4982471,6.013281603515625,6.6498885Q6.094335603515625,6.8015294,6.189862203515625,6.9444952Q6.285389403515625,7.0874615,6.394469503515625,7.2203765Q6.503549603515625,7.3532906,6.625132103515625,7.4748735Q6.7467151035156245,7.5964565,6.879629603515625,7.7055368Q7.012544203515625,7.8146167,7.155509903515625,7.9101434Q7.298476203515625,8.0056705,7.450117103515625,8.0867243Q7.601758203515625,8.167778,7.7606137035156255,8.2335777Q7.919469403515625,8.2993784,8.084009603515625,8.3492918Q8.248549503515626,8.3992043,8.417189603515624,8.4327488Q8.585829703515625,8.4662933,8.756946103515624,8.4831476Q8.928062403515625,8.5,9.100006103515625,8.5Q9.271950703515625,8.5,9.443066603515625,8.4831476Q9.614182503515625,8.4662933,9.782821703515625,8.4327488Q9.951462303515626,8.3992043,10.116002103515626,8.3492908Q10.280542403515625,8.2993784,10.439397303515625,8.2335777Q10.598253203515625,8.167778,10.749894603515624,8.0867243Q10.901535503515625,8.0056705,11.044501303515625,7.9101434Q11.187467603515625,7.8146167,11.320382603515625,7.7055364Q11.453296703515626,7.5964565,11.574879603515626,7.4748735Q11.696462603515625,7.3532906,11.805542903515626,7.2203765Q11.914622803515625,7.0874615,12.010149503515624,6.9444952Q12.105676603515626,6.8015294,12.186730403515625,6.649888Q12.267784103515625,6.4982471,12.333583803515625,6.3393912Q12.399384503515625,6.1805363,12.449297903515625,6.0159965Q12.499210403515624,5.8514562,12.532754903515626,5.6828156Q12.566299403515625,5.5141764,12.583153703515626,5.34306Q12.600006103515625,5.1719446,12.600006103515625,5Z" fill="#999999" fill-opacity="1"/></g></g></svg>