<svg xmlns="http://www.w3.org/2000/svg" xmlns:xlink="http://www.w3.org/1999/xlink" fill="none" version="1.1"  viewBox="0 0 18 21.405136108398438"><g><g><path d="M11.058883,13.199595500000001C14.227412,13.199595500000001,16.805119,15.7919798,16.805649,18.978652L16.805649,19.3928652C16.805649,19.5130892,16.783941,19.5477362,16.702942,19.6112604C16.598118,19.6936846,16.327589,19.8506556,15.695472,19.976126700000002C14.540295,20.2050219,12.849354,20.2050219,11.059412,20.2050219L6.9411187,20.2050219C5.1125302,20.2050219,3.3861184,20.2050219,2.2515891,19.9766512C1.6438243,19.8543291,1.3897065,19.7031336,1.2917656,19.6233358C1.2282362,19.5718851,1.1954125,19.5382872,1.1954125,19.3928652L1.1954125,18.978652C1.1954125,15.7919798,3.7731187,13.199595500000001,6.9411187,13.199595500000001L11.058883,13.199595500000001ZM11.058899,12L6.9406128,12C3.1129653,12,0,15.130497,0,18.978652L0,19.3928652C0,21.4051409,3.0631769,21.4051409,6.940589,21.4051409L11.058883,21.4051409C14.783824,21.4051409,18,21.4051409,18,19.3928652L18,18.978652C18.000002,15.1310215,14.886547,12,11.058899,12Z" fill="#333333" fill-opacity="1"/></g><g><path d="M0.5,19L1.5,20.5L7,20.5L15.5,20.5L17,19.5L17,17L16,14.5L12.5,13L5.5,13L2,15L0.5,19Z" fill="#333333" fill-opacity="1"/></g><g><ellipse cx="9" cy="5" rx="5" ry="5" fill="#333333" fill-opacity="1"/></g></g></svg>