<svg xmlns="http://www.w3.org/2000/svg" xmlns:xlink="http://www.w3.org/1999/xlink" fill="none" version="1.1"  viewBox="0 0 19.5 18.267467498779297"><g><path d="M3.6444299,8.0702667C3.6444299,8.0702667,3.97984,8.741087,3.97984,8.741087C3.97984,8.741087,3.97984,8.741087,3.97984,8.741087C3.97984,8.741087,3.6444299,8.0702667,3.6444299,8.0702667C3.6444299,8.0702667,3.6444299,8.0702667,3.6444299,8.0702667ZM7.1722898,6.3063364C7.1722898,6.3063364,6.8368802,5.6355166,6.8368802,5.6355166C6.8368802,5.6355166,6.8368802,5.6355166,6.8368802,5.6355166C6.8368802,5.6355166,7.1722898,6.3063364,7.1722898,6.3063364C7.1722898,6.3063364,7.1722898,6.3063364,7.1722898,6.3063364ZM7.1722898,2.7286265C7.1722898,2.7286265,6.8368802,3.3994465,6.8368802,3.3994465C6.8368802,3.3994465,7.1722898,2.7286265,7.1722898,2.7286265C7.1722898,2.7286265,7.1722898,2.7286265,7.1722898,2.7286265ZM3.6444299,0.96469259C3.6444299,0.96469259,3.97984,0.29387259,3.97984,0.29387259C3.97984,0.29387259,3.97984,0.29387259,3.97984,0.29387259C3.97984,0.29387259,3.6444299,0.96469259,3.6444299,0.96469259C3.6444299,0.96469259,3.6444299,0.96469259,3.6444299,0.96469259ZM11.75,1.7674766C11.3358,1.7674766,11,2.1032665,11,2.5174766C11,2.9316866,11.3358,3.2674766,11.75,3.2674766C11.75,3.2674766,11.75,1.7674766,11.75,1.7674766C11.75,1.7674766,11.75,1.7674766,11.75,1.7674766ZM18.75,3.2674766C19.1642,3.2674766,19.5,2.9316866,19.5,2.5174766C19.5,2.1032665,19.1642,1.7674766,18.75,1.7674766C18.75,1.7674766,18.75,3.2674766,18.75,3.2674766C18.75,3.2674766,18.75,3.2674766,18.75,3.2674766ZM11.75,6.7674766C11.3358,6.7674766,11,7.1032667,11,7.5174766C11,7.9316864,11.3358,8.267477,11.75,8.267477C11.75,8.267477,11.75,6.7674766,11.75,6.7674766C11.75,6.7674766,11.75,6.7674766,11.75,6.7674766ZM18.75,8.267477C19.1642,8.267477,19.5,7.9316864,19.5,7.5174766C19.5,7.1032667,19.1642,6.7674766,18.75,6.7674766C18.75,6.7674766,18.75,8.267477,18.75,8.267477C18.75,8.267477,18.75,8.267477,18.75,8.267477ZM0.75,11.767467C0.33578601,11.767467,0,12.103267,0,12.517467C0,12.931666,0.33578601,13.267467,0.75,13.267467C0.75,13.267467,0.75,11.767467,0.75,11.767467C0.75,11.767467,0.75,11.767467,0.75,11.767467ZM18.75,13.267467C19.1642,13.267467,19.5,12.931666,19.5,12.517467C19.5,12.103267,19.1642,11.767467,18.75,11.767467C18.75,11.767467,18.75,13.267467,18.75,13.267467C18.75,13.267467,18.75,13.267467,18.75,13.267467ZM0.75,16.767467C0.33578601,16.767467,0,17.103266,0,17.517467C0,17.931667,0.33578601,18.267467,0.75,18.267467C0.75,18.267467,0.75,16.767467,0.75,16.767467C0.75,16.767467,0.75,16.767467,0.75,16.767467ZM18.75,18.267467C19.1642,18.267467,19.5,17.931667,19.5,17.517467C19.5,17.103266,19.1642,16.767467,18.75,16.767467C18.75,16.767467,18.75,18.267467,18.75,18.267467C18.75,18.267467,18.75,18.267467,18.75,18.267467ZM3.97984,8.741087C3.97984,8.741087,7.5077,6.9771566,7.5077,6.9771566C7.5077,6.9771566,6.8368802,5.6355166,6.8368802,5.6355166C6.8368802,5.6355166,3.30902,7.3994465,3.30902,7.3994465C3.30902,7.3994465,3.97984,8.741087,3.97984,8.741087C3.97984,8.741087,3.97984,8.741087,3.97984,8.741087ZM7.5077,2.0578065C7.5077,2.0578065,3.97984,0.29387259,3.97984,0.29387259C3.97984,0.29387259,3.30902,1.6355135,3.30902,1.6355135C3.30902,1.6355135,6.8368802,3.3994465,6.8368802,3.3994465C6.8368802,3.3994465,7.5077,2.0578065,7.5077,2.0578065C7.5077,2.0578065,7.5077,2.0578065,7.5077,2.0578065ZM7.5077,6.9771566C9.5345802,5.9637165,9.5345898,3.0712466,7.5077,2.0578065C7.5077,2.0578065,6.8368802,3.3994465,6.8368802,3.3994465C7.7581902,3.8600967,7.7581902,5.1748567,6.8368802,5.6355166C6.8368802,5.6355166,7.5077,6.9771566,7.5077,6.9771566C7.5077,6.9771566,7.5077,6.9771566,7.5077,6.9771566ZM3.30902,7.3994465C2.47789,7.8150067,1.5,7.2106366,1.5,6.2814064C1.5,6.2814064,0,6.2814064,0,6.2814064C0,8.3257065,2.15136,9.6553268,3.97984,8.741087C3.97984,8.741087,3.30902,7.3994465,3.30902,7.3994465C3.30902,7.3994465,3.30902,7.3994465,3.30902,7.3994465ZM3.97984,0.29387259C2.15136,-0.62036341,0,0.70924258,0,2.7535465C0,2.7535465,1.5,2.7535465,1.5,2.7535465C1.5,1.8243166,2.47789,1.2199496,3.30902,1.6355135C3.30902,1.6355135,3.97984,0.29387259,3.97984,0.29387259C3.97984,0.29387259,3.97984,0.29387259,3.97984,0.29387259ZM11.75,3.2674766C11.75,3.2674766,18.75,3.2674766,18.75,3.2674766C18.75,3.2674766,18.75,1.7674766,18.75,1.7674766C18.75,1.7674766,11.75,1.7674766,11.75,1.7674766C11.75,1.7674766,11.75,3.2674766,11.75,3.2674766C11.75,3.2674766,11.75,3.2674766,11.75,3.2674766ZM11.75,8.267477C11.75,8.267477,18.75,8.267477,18.75,8.267477C18.75,8.267477,18.75,6.7674766,18.75,6.7674766C18.75,6.7674766,11.75,6.7674766,11.75,6.7674766C11.75,6.7674766,11.75,8.267477,11.75,8.267477C11.75,8.267477,11.75,8.267477,11.75,8.267477ZM0.75,13.267467C0.75,13.267467,18.75,13.267467,18.75,13.267467C18.75,13.267467,18.75,11.767467,18.75,11.767467C18.75,11.767467,0.75,11.767467,0.75,11.767467C0.75,11.767467,0.75,13.267467,0.75,13.267467C0.75,13.267467,0.75,13.267467,0.75,13.267467ZM0.75,18.267467C0.75,18.267467,18.75,18.267467,18.75,18.267467C18.75,18.267467,18.75,16.767467,18.75,16.767467C18.75,16.767467,0.75,16.767467,0.75,16.767467C0.75,16.767467,0.75,18.267467,0.75,18.267467C0.75,18.267467,0.75,18.267467,0.75,18.267467ZM0,2.7535465C0,2.7535465,0,6.2814064,0,6.2814064C0,6.2814064,1.5,6.2814064,1.5,6.2814064C1.5,6.2814064,1.5,2.7535465,1.5,2.7535465C1.5,2.7535465,0,2.7535465,0,2.7535465C0,2.7535465,0,2.7535465,0,2.7535465Z" fill="#FFFFFF" fill-opacity="1"/></g></svg>