<svg xmlns="http://www.w3.org/2000/svg" xmlns:xlink="http://www.w3.org/1999/xlink" fill="none" version="1.1" width="64" height="64" viewBox="0 0 64 64"><g><path d="M32,64Q32.785553,64,33.570164,63.961452Q34.354774,63.922909,35.136547,63.845913Q35.91832,63.768913,36.69537,63.653648Q37.472424,63.53838,38.242886,63.385124Q39.013348,63.231869,39.77536,63.040993Q40.537376,62.850121,41.289108,62.622086Q42.040833,62.394051,42.780468,62.129402Q43.520103,61.864754,44.245865,61.564137Q44.971619,61.263519,45.681755,60.92765Q46.391891,60.591782,47.08469,60.221474Q47.777489,59.851166,48.451279,59.447308Q49.125069,59.043449,49.778236,58.607018Q50.431404,58.170586,51.06237,57.702633Q51.693336,57.23468,52.300583,56.736328Q52.907822,56.237976,53.48988,55.71043Q54.071938,55.182884,54.627411,54.627411Q55.182884,54.071938,55.71043,53.489883Q56.237976,52.907822,56.736328,52.300583Q57.23468,51.693336,57.702633,51.06237Q58.170586,50.431404,58.607018,49.778236Q59.043449,49.125069,59.447308,48.451279Q59.851166,47.777489,60.221478,47.084694Q60.591782,46.391891,60.927654,45.681755Q61.263519,44.971619,61.56414,44.245865Q61.864761,43.520103,62.129406,42.780472Q62.394051,42.040833,62.622089,41.289108Q62.850121,40.537376,63.040997,39.77536Q63.231873,39.013348,63.385124,38.242886Q63.53838,37.472424,63.653645,36.695374Q63.768913,35.91832,63.845913,35.136551Q63.922909,34.354774,63.961456,33.570164Q64,32.785553,64,32Q64,31.214443,63.961452,30.429834Q63.922909,29.645226,63.845913,28.863453Q63.768913,28.081676,63.653648,27.304623Q63.53838,26.527569,63.385124,25.757109Q63.231869,24.986647,63.040993,24.224632Q62.850121,23.46262,62.622086,22.71089Q62.394051,21.959158,62.129402,21.219522Q61.864754,20.479885,61.564137,19.754128Q61.263519,19.028368,60.92765,18.318233Q60.591782,17.608101,60.221474,16.915302Q59.851166,16.222504,59.447308,15.548711Q59.043449,14.874917,58.607018,14.221751Q58.170586,13.568585,57.702633,12.937622Q57.23468,12.306658,56.736328,11.699415Q56.237976,11.092173,55.71043,10.510114Q55.182884,9.9280548,54.627411,9.3725824Q54.071938,8.8171101,53.489883,8.2895641Q52.907822,7.7620168,52.300583,7.2636657Q51.693336,6.7653141,51.06237,6.2973585Q50.431404,5.8294034,49.778236,5.392972Q49.125069,4.9565401,48.451279,4.5526838Q47.777489,4.1488276,47.084694,3.7785194Q46.391891,3.4082108,45.681755,3.0723422Q44.971619,2.7364738,44.245865,2.4358547Q43.520103,2.1352355,42.780472,1.8705897Q42.040833,1.6059439,41.289108,1.3779092Q40.537376,1.1498743,39.77536,0.95899981Q39.013348,0.7681253,38.242886,0.61487097Q37.472424,0.46161661,36.695374,0.34635165Q35.91832,0.23108667,35.136551,0.15408874Q34.354774,0.077090792,33.570164,0.038545396Q32.785553,0,32,0Q31.214443,0,30.429834,0.038545396Q29.645226,0.077090792,28.863453,0.15408874Q28.081676,0.23108667,27.304623,0.34635162Q26.527569,0.46161661,25.757109,0.61487097Q24.986647,0.7681253,24.224632,0.95899975Q23.46262,1.1498743,22.71089,1.3779092Q21.959158,1.6059439,21.219522,1.8705897Q20.479885,2.1352355,19.754128,2.4358547Q19.028368,2.7364738,18.318233,3.0723422Q17.608101,3.4082105,16.915302,3.7785192Q16.222504,4.1488276,15.548711,4.5526838Q14.874917,4.9565401,14.221751,5.392972Q13.568585,5.8294034,12.937622,6.2973585Q12.306658,6.7653136,11.699415,7.2636652Q11.092173,7.7620163,10.510114,8.2895632Q9.9280548,8.8171101,9.3725824,9.3725824Q8.8171101,9.9280548,8.2895641,10.510114Q7.7620168,11.092173,7.2636657,11.699415Q6.7653141,12.306658,6.2973585,12.937622Q5.8294034,13.568586,5.392972,14.221752Q4.9565401,14.874918,4.5526838,15.548711Q4.1488276,16.222504,3.7785194,16.915302Q3.4082108,17.608101,3.0723422,18.318233Q2.7364738,19.028368,2.4358547,19.754128Q2.1352355,20.479885,1.8705897,21.219521Q1.6059439,21.959158,1.3779092,22.71089Q1.1498743,23.46262,0.95899981,24.224632Q0.7681253,24.986647,0.61487097,25.757109Q0.46161661,26.527569,0.34635165,27.304623Q0.23108667,28.081676,0.15408874,28.863453Q0.077090792,29.645226,0.038545396,30.429836Q0,31.214443,0,32Q0,32.785553,0.038545396,33.570164Q0.077090792,34.354774,0.15408874,35.136547Q0.23108667,35.91832,0.34635162,36.69537Q0.46161661,37.472424,0.61487097,38.242886Q0.7681253,39.013348,0.95899975,39.77536Q1.1498743,40.537376,1.3779092,41.289108Q1.6059439,42.040833,1.8705897,42.780468Q2.1352355,43.520103,2.4358547,44.245865Q2.7364738,44.971619,3.0723422,45.681755Q3.4082105,46.391891,3.7785192,47.08469Q4.1488276,47.777489,4.5526838,48.451279Q4.9565401,49.125069,5.392972,49.778236Q5.8294034,50.431404,6.2973585,51.06237Q6.7653136,51.693336,7.2636652,52.300583Q7.7620163,52.907822,8.2895632,53.48988Q8.8171101,54.071938,9.3725824,54.627411Q9.9280548,55.182884,10.510114,55.71043Q11.092173,56.237976,11.699415,56.736328Q12.306658,57.23468,12.937622,57.702633Q13.568586,58.170586,14.221752,58.607018Q14.874918,59.043449,15.548711,59.447308Q16.222504,59.851166,16.915302,60.221478Q17.608101,60.591782,18.318233,60.927654Q19.028368,61.263519,19.754128,61.56414Q20.479885,61.864761,21.219521,62.129406Q21.959158,62.394051,22.71089,62.622089Q23.46262,62.850121,24.224632,63.040997Q24.986647,63.231873,25.757109,63.385124Q26.527569,63.53838,27.304623,63.653645Q28.081676,63.768913,28.863453,63.845913Q29.645226,63.922909,30.429836,63.961456Q31.214443,64,32,64ZM29,21L24,21L24,44L29,44L29,21ZM40,21L35,21L35,44L40,44L40,21Z" fill-rule="evenodd" fill="#FFFFFF" fill-opacity="1"/></g></svg>