<svg xmlns="http://www.w3.org/2000/svg" xmlns:xlink="http://www.w3.org/1999/xlink" fill="none" version="1.1" viewBox="0 0 80 80"><defs><filter id="master_svg0_37_7494" filterUnits="objectBoundingBox" color-interpolation-filters="sRGB" x="-0.2857142857142857" y="-0.21428571428571427" width="1.5714285714285714" height="1.5714285714285714"><feFlood flood-opacity="0" result="BackgroundImageFix"/><feColorMatrix in="SourceAlpha" type="matrix" values="0 0 0 0 0 0 0 0 0 0 0 0 0 0 0 0 0 0 127 0"/><feOffset dy="4" dx="0"/><feGaussianBlur stdDeviation="4"/><feColorMatrix type="matrix" values="0 0 0 0 0.32549020648002625 0 0 0 0 0.33725491166114807 0 0 0 0 1 0 0 0 0.20000000298023224 0"/><feBlend mode="normal" in2="BackgroundImageFix" result="effect1_dropShadow"/><feBlend mode="normal" in="SourceGraphic" in2="effect1_dropShadow" result="shape"/></filter><linearGradient x1="0.0968431755900383" y1="0.8834664225578308" x2="0.9095709919929504" y2="0.1737627238035202" id="master_svg1_4_6845"><stop offset="0%" stop-color="#FFFFFF" stop-opacity="1"/><stop offset="42.75732934474945%" stop-color="#FFFFFF" stop-opacity="1"/><stop offset="100%" stop-color="#FFFFFF" stop-opacity="1"/></linearGradient><mask id="master_svg2_37_7494" style="mask-type:alpha" maskUnits="objectBoundingBox"><g filter="url(#master_svg0_37_7494)"><ellipse cx="40" cy="36" rx="28" ry="28" fill="url(#master_svg1_4_6845)" fill-opacity="1"/></g></mask><filter id="master_svg3_37_7496" filterUnits="objectBoundingBox" color-interpolation-filters="sRGB" x="-0.2857142857142857" y="-0.21428571428571427" width="1.5714285714285714" height="1.5714285714285714"><feFlood flood-opacity="0" result="BackgroundImageFix"/><feColorMatrix in="SourceAlpha" type="matrix" values="0 0 0 0 0 0 0 0 0 0 0 0 0 0 0 0 0 0 127 0"/><feOffset dy="4" dx="0"/><feGaussianBlur stdDeviation="4"/><feColorMatrix type="matrix" values="0 0 0 0 0.16470588743686676 0 0 0 0 0.5684313774108887 0 0 0 0 1 0 0 0 0.20000000298023224 0"/><feBlend mode="normal" in2="BackgroundImageFix" result="effect1_dropShadow"/><feBlend mode="normal" in="SourceGraphic" in2="effect1_dropShadow" result="shape"/></filter><linearGradient x1="0.2197788804769516" y1="1" x2="0.6180877685546875" y2="-0.2148611843585968" id="master_svg4_37_4563"><stop offset="0%" stop-color="#FF50A5" stop-opacity="1"/><stop offset="43.83561313152313%" stop-color="#FF50A5" stop-opacity="1"/><stop offset="58.17044377326965%" stop-color="#FF52BA" stop-opacity="1"/><stop offset="100%" stop-color="#9CEEFF" stop-opacity="1"/></linearGradient><filter id="master_svg5_37_7492" filterUnits="objectBoundingBox" color-interpolation-filters="sRGB" x="-1.1691199868345559" y="-1.0051838869086325" width="3.3382399736691117" height="3.010367773817265"><feFlood flood-opacity="0" result="BackgroundImageFix"/><feBlend mode="normal" in="SourceGraphic" in2="BackgroundImageFix" result="shape"/><feGaussianBlur stdDeviation="7.5" result="effect1_foregroundBlur"/></filter><filter id="master_svg6_37_7491" filterUnits="objectBoundingBox" color-interpolation-filters="sRGB" x="-0.3402106382271836" y="-4.0490402278805355" width="1.6804212764543673" height="9.098080455761071"><feFlood flood-opacity="0" result="BackgroundImageFix"/><feBlend mode="normal" in="SourceGraphic" in2="BackgroundImageFix" result="shape"/><feGaussianBlur stdDeviation="5" result="effect1_foregroundBlur"/></filter><filter id="master_svg7_37_7495" filterUnits="objectBoundingBox" color-interpolation-filters="sRGB" x="-0.5742609014722413" y="-0.8393281379071867" width="2.1485218029444826" height="2.6786562758143733"><feFlood flood-opacity="0" result="BackgroundImageFix"/><feBlend mode="normal" in="SourceGraphic" in2="BackgroundImageFix" result="shape"/><feGaussianBlur stdDeviation="8" result="effect1_foregroundBlur"/></filter><filter id="master_svg8_37_7493" filterUnits="objectBoundingBox" color-interpolation-filters="sRGB" x="-0.9858337295603579" y="-1.2678415971832622" width="2.9716674591207157" height="3.5356831943665243"><feFlood flood-opacity="0" result="BackgroundImageFix"/><feBlend mode="normal" in="SourceGraphic" in2="BackgroundImageFix" result="shape"/><feGaussianBlur stdDeviation="7.5" result="effect1_foregroundBlur"/></filter></defs><g mask="url(#master_svg2_37_7494)"><g filter="url(#master_svg3_37_7496)"><ellipse cx="40" cy="36" rx="28" ry="28" fill="url(#master_svg4_37_4563)" fill-opacity="1"/></g><g transform="matrix(0.5024130940437317,0.8646277189254761,-0.8646277189254761,0.5024130940437317,66.61797052621841,-15.75815749168396)" filter="url(#master_svg5_37_7492)"><ellipse cx="59.83016300201416" cy="64.9226427078247" rx="12.83016300201416" ry="14.922642707824707" fill="#F9179F" fill-opacity="1"/></g><g transform="matrix(0.4059566259384155,0.9138923287391663,-0.9138923287391663,0.4059566259384155,28.52984839712589,-30.028935064569936)" filter="url(#master_svg6_37_7491)"><path d="M96.15069542578125,10.536083188223266C95.45017242578125,11.369150388223266,89.64498142578125,9.696670288223267,84.54327442578125,9.629434788223266C79.44157042578125,9.562199588223267,75.04334242578125,11.100208988223265,71.21417242578124,11.250383588223267C66.85585742578125,11.421310688223267,63.18868242578125,11.870617588223267,57.60772742578125,11.870617588223267C42.22002412578125,11.870617588223267,37.36358642578125,11.124936788223266,37.36358642578125,10.194123288223267C37.36358642578125,9.263308088223267,49.837783425781254,8.508732988223267,65.22548642578124,8.508732988223267C72.91933842578125,8.508732988223267,79.64852142578124,6.593198208223266,85.45635942578124,6.983683947223267C91.26419842578125,7.3741696182232666,96.15069542578125,10.070675588223267,96.15069542578125,10.536083188223266Z" fill="#FFFFFF" fill-opacity="0.5"/></g><g transform="matrix(0.5024130940437317,0.8646277189254761,-0.8646277189254761,0.5024130940437317,26.894290387630463,-54.732638478279114)" filter="url(#master_svg7_37_7495)"><ellipse cx="88.86190032958984" cy="15.0628662109375" rx="27.861900329589844" ry="19.0628662109375" fill="#4EE1FF" fill-opacity="1"/></g><g transform="matrix(-0.5335599184036255,0.8457622528076172,-0.8457622528076172,-0.5335599184036255,66.30505305391853,11.431615163979586)" filter="url(#master_svg8_37_7493)"><path d="M30.964026750625,27.13046331875Q27.963833340625,39.81269571875,34.303048140625,42.82743271875C40.642263140625,45.84217271875,55.049488140625,48.856912718749996,56.778356140625,47.18206071875C58.507223140625,45.50720171875,64.053657140625,33.78313921875,56.778349140625,36.55465771875C49.503044140625,39.32617771875,48.704101140625,39.23925071875,47.839666140625,37.56439571875Q46.975235140625,35.88954271875,44.099971140625,33.78322221875Q43.503904140624996,34.27541671875,42.956566140625,34.22615771875Q41.170658140625,34.06543471875,39.903535840625,28.14016151875Q39.198357540625,24.84263205875,37.471873240625,24.17118793875Q35.145288440625,23.26636004875,30.964026750625,27.13046331875Z" fill="#F9179F" fill-opacity="1"/></g><g transform="matrix(-0.7071068286895752,-0.7071067690849304,0.7071067690849304,-0.7071067690849304,22.705501880598604,117.10219039138246)"><path d="M36.16172105484375,76.80177681250001C35.89312595484375,78.1761738125,37.08376581484375,79.3939478125,38.46386531484375,79.1563878125L58.112315714843746,75.7742458125C59.71068571484375,75.4991148125,60.33409671484375,73.5358948125,59.18727271484375,72.38903781249999L43.30392261484375,56.5052314125C42.17158321484375,55.3728596125,40.23396631484375,55.9641642125,39.92682071484375,57.5358255125L36.16172105484375,76.80177681250001Z" fill="#FFFFFF" fill-opacity="1"/></g></g></svg>