<svg xmlns="http://www.w3.org/2000/svg" xmlns:xlink="http://www.w3.org/1999/xlink" fill="none" version="1.1"  viewBox="0 0 10 13"><g transform="matrix(0,-1,-1,0,23,23)"><path d="M14.4998474,14.3725491Q14.4998474,14.3051202,14.5064569,14.2380158Q14.5130658,14.1709116,14.5262203,14.1047781Q14.5393753,14.0386447,14.5589485,13.97411913Q14.5785222,13.90959358,14.6043258,13.84729719Q14.630129799999999,13.78500092,14.6619158,13.72553384Q14.6937017,13.66606677,14.731162999999999,13.61000156Q14.7686253,13.55393642,14.811401799999999,13.50181311Q14.8541784,13.44968981,14.9018574,13.40201029Q14.9495373,13.35433078,15.001660300000001,13.31155428Q15.0537844,13.26877779,15.109849,13.23131621Q15.1659145,13.19385466,15.2253814,13.16206884Q15.284848199999999,13.13028303,15.347144100000001,13.10447906Q15.409441000000001,13.078675106,15.4739666,13.059101496Q15.5384922,13.039527889,15.604625200000001,13.026373141Q15.670759199999999,13.013218396,15.7378635,13.0066091982Q15.804967900000001,13,15.8723965,13L16.6272984,13Q16.694727399999998,13,16.7618313,13.0066091982Q16.8289356,13.013218396,16.895068600000002,13.026373141Q16.9612026,13.039527889,17.0257282,13.0591015Q17.0902538,13.078675106,17.1525493,13.10447906Q17.2148461,13.13028303,17.274313,13.16206884Q17.3337803,13.19385466,17.3898449,13.23131621Q17.4459105,13.26877779,17.498034,13.31155428Q17.5501575,13.35433078,17.597837,13.40201029Q17.6455169,13.44968981,17.6882935,13.50181311Q17.731069599999998,13.55393642,17.7685308,13.61000156Q17.8059926,13.66606677,17.8377786,13.72553384Q17.869564099999998,13.78500092,17.8953681,13.84729719Q17.9211721,13.90959358,17.940745800000002,13.97411907Q17.9603195,14.0386447,17.973474,14.1047781Q17.9866295,14.1709116,17.9932389,14.2380158Q17.9998484,14.3051202,17.9998474,14.3725491Q17.9998479,14.4893801,17.9801016,14.6045306Q17.960355800000002,14.719680799999999,17.9214315,14.8298371Q17.8825073,14.9399935,17.8255253,15.0419862Q17.7685423,15.1439791,17.6951408,15.2348733Q17.6217403,15.325768,17.5340333,15.4029491Q17.4463258,15.4801302,17.3468351,15.5413771Q17.247345,15.602623900000001,17.1389341,15.6461742Q17.0305233,15.6897244,16.9163113,15.714325Q16.869945,15.9471719,16.9383678,16.1390953Q17.0698085,16.5077803,17.624851200000002,16.7254465L17.624895600000002,16.7254639L18.4754295,16.7254639Q18.5380421,16.7254641,18.6003532,16.7316012Q18.6626644,16.7377384,18.7240734,16.7499533Q18.7854824,16.7621684,18.8453999,16.780344Q18.9053154,16.7985194,18.9631615,16.82248Q19.0210094,16.846441,19.0762281,16.8759563Q19.1314478,16.9054718,19.183507900000002,16.9402573Q19.235568999999998,16.9750433,19.283969900000002,17.0147643Q19.3323708,17.0544853,19.3766432,17.0987592Q19.4209175,17.143033,19.460638,17.1914334Q19.5003586,17.2398338,19.5351439,17.291894Q19.5699301,17.3439546,19.5994453,17.3991742Q19.6289606,17.4543934,19.6529207,17.5122399Q19.6768818,17.570086500000002,19.695057900000002,17.6300035Q19.7132339,17.6899199,19.7254486,17.7513294Q19.737665200000002,17.812739399999998,19.7438021,17.8750501Q19.749938999999998,17.937361199999998,19.749938999999998,17.9999738Q19.749938999999998,18.0941944,19.736083,18.1873908Q19.722229,18.2805872,19.694820399999998,18.3707333Q19.6674099,18.460879300000002,19.627042799999998,18.546014800000002Q19.5866756,18.6311502,19.5342293,18.709424Q19.481780999999998,18.787697299999998,19.4183941,18.857407600000002Q19.3550072,18.9271183,19.2820578,18.9867506Q19.209108399999998,19.046382,19.1281824,19.094637900000002Q19.0472565,19.1428938,18.9601154,19.1787252Q18.7827864,19.659103899999998,18.941966999999998,19.9635253Q19.1422129,20.346480800000002,19.8749876,20.4509792L19.8750544,20.4509888L21.725490999999998,20.4509888Q21.788104,20.450989200000002,21.850416,20.4571266Q21.912726,20.4632635,21.974134,20.4754782Q22.035544,20.4876938,22.095461,20.5058689Q22.155376,20.5240445,22.213223,20.5480046Q22.27107,20.5719662,22.326289,20.601481Q22.381509,20.6309967,22.433569,20.6657815Q22.48563,20.7005677,22.534031,20.7402892Q22.582432,20.7800102,22.626704,20.8242836Q22.670979000000003,20.8685579,22.710698999999998,20.9169579Q22.750421,20.9653578,22.785206000000002,21.017417899999998Q22.819992,21.069479,22.849507,21.1246977Q22.879023,21.1799173,22.902983,21.2377634Q22.926945,21.2956104,22.94512,21.3555269Q22.963295000000002,21.4154434,22.97551,21.4768524Q22.987726000000002,21.5382633,22.993862999999997,21.6005745Q23.000000999999997,21.6628857,23,21.7254982Q23.000000999999997,21.7881107,22.993864000000002,21.8504219Q22.987726000000002,21.9127331,22.97551,21.9741421Q22.963295000000002,22.035552,22.94512,22.095468500000003Q22.926945,22.155385000000003,22.902983,22.2132311Q22.879023,22.2710781,22.849507,22.3262978Q22.819992,22.3815174,22.785206000000002,22.4335775Q22.750421,22.4856386,22.710698999999998,22.5340395Q22.670979000000003,22.5824394,22.626704,22.6267128Q22.582432,22.670988100000002,22.534031,22.7107086Q22.48563,22.7504292,22.433569,22.785213499999998Q22.381509,22.8199997,22.326289,22.8495159Q22.27107,22.879030200000003,22.213223,22.9029903Q22.155376,22.926952399999998,22.095461,22.9451284Q22.035544,22.9633045,21.974134,22.9755182Q21.912726,22.9877338,21.850416,22.9938717Q21.788104,23.000009,21.725490999999998,23.000009L11.2745099,23.000009Q11.2118974,23.000009,11.1495862,22.9938717Q11.087275,22.9877338,11.0258653,22.9755182Q10.96445584,22.9633045,10.90453923,22.9451284Q10.84462261,22.926952399999998,10.78677601,22.9029903Q10.72892946,22.879030200000003,10.67371005,22.8495159Q10.61849058,22.8199997,10.56643003,22.785213499999998Q10.51436955,22.7504292,10.46596932,22.7107086Q10.4175691,22.670988100000002,10.37329528,22.6267128Q10.32902145,22.5824394,10.28930041,22.5340385Q10.24957936,22.4856386,10.21479362,22.4335775Q10.1800079,22.3815174,10.1504925,22.3262978Q10.1209771,22.2710781,10.097016275,22.2132311Q10.073055461,22.155385000000003,10.054879967,22.095468500000003Q10.036704473,22.035552,10.024489347,21.9741421Q10.012274226,21.9127331,10.0061371131,21.8504219Q10,21.7881107,10,21.7254982Q10,21.6628857,10.0061371131,21.6005745Q10.012274226,21.5382633,10.024489347,21.4768524Q10.036704473,21.4154434,10.054879963,21.3555269Q10.073055461,21.2956104,10.097016275,21.2377634Q10.1209771,21.1799173,10.15049252,21.124698600000002Q10.1800079,21.069479,10.21479362,21.017417899999998Q10.24957936,20.9653578,10.28930038,20.9169579Q10.32902145,20.8685575,10.37329528,20.8242831Q10.4175691,20.7800102,10.46596932,20.7402887Q10.51436955,20.7005677,10.56643003,20.6657815Q10.61849058,20.6309962,10.67370999,20.601481Q10.72892946,20.5719652,10.78677601,20.5480042Q10.84462261,20.524044,10.90453923,20.5058689Q10.96445584,20.4876938,11.0258653,20.4754782Q11.087275,20.4632635,11.1495862,20.4571261Q11.2118974,20.450989200000002,11.2745099,20.4509888L17.6996689,20.4509888Q17.999939,20.2885494,17.999939,20.0588226C17.999939,19.6666656,17.624939,19.4705873,17.374939,19.3725476Q17.3461213,19.3612466,17.34554,19.3486433Q17.3440313,19.3159471,17.5325465,19.2744837L13.5244489,19.2744837Q13.4618363,19.2744837,13.3995252,19.2683468Q13.337214,19.262209900000002,13.275804,19.2499943Q13.2143946,19.2377796,13.1544778,19.219604Q13.0945613,19.2014284,13.0367146,19.1774673Q12.9788682,19.1535068,12.9236488,19.123991Q12.8684292,19.0944757,12.8163686,19.05969Q12.7643085,19.0249043,12.7159083,18.9851837Q12.6675081,18.9454622,12.623234,18.9011884Q12.5789604,18.856915,12.5392392,18.8085146Q12.4995179,18.7601142,12.4647322,18.7080531Q12.4299464,18.6559925,12.4004312,18.6007733Q12.3709159,18.545554199999998,12.346954799999999,18.4877071Q12.3229942,18.4298611,12.3048186,18.3699446Q12.2866433,18.3100281,12.2744281,18.2486181Q12.2622132,18.1872091,12.2560761,18.124898Q12.249939,18.0625868,12.249939,17.9999738Q12.249939,17.937361199999998,12.2560761,17.8750501Q12.2622132,17.812739399999998,12.2744281,17.7513294Q12.2866433,17.6899199,12.3048186,17.6300035Q12.3229942,17.570086500000002,12.346954799999999,17.5122399Q12.3709159,17.4543934,12.4004312,17.3991742Q12.4299464,17.3439546,12.4647322,17.291894Q12.4995179,17.2398338,12.5392392,17.1914334Q12.5789604,17.143033,12.623234,17.0987592Q12.6675081,17.0544853,12.7159081,17.014764800000002Q12.7643085,16.9750433,12.8163688,16.9402573Q12.8684294,16.9054718,12.9236488,16.8759565Q12.9788685,16.846441,13.0367148,16.82248Q13.0945616,16.7985194,13.1544781,16.7803438Q13.2143946,16.7621684,13.275804,16.7499533Q13.337214,16.7377384,13.3995252,16.7316012Q13.4618363,16.7254641,13.5244489,16.7254639L15.5085292,16.7254639Q15.8284402,16.4678416,15.8450871,16.1919227Q15.8586478,15.967150199999999,15.6709547,15.7302353Q15.5498428,15.712266,15.4338245,15.6731436Q15.3178062,15.6340213,15.210545100000001,15.5749815Q15.1032829,15.5159411,15.0081644,15.438848Q14.9130459,15.361754900000001,14.833075000000001,15.269043Q14.7531037,15.176331,14.6908054,15.0709281Q14.628506699999999,14.9655254,14.5858488,14.85076Q14.54319,14.7359943,14.5215187,14.6154903Q14.4998474,14.4949862,14.4998474,14.3725491Z" fill-rule="evenodd" fill="#FF2050" fill-opacity="1"/></g></svg>