<svg xmlns="http://www.w3.org/2000/svg" xmlns:xlink="http://www.w3.org/1999/xlink" fill="none" version="1.1"  viewBox="0 0 66 77"><g transform="matrix(-1,0,0,-1,132,154)"><path d="M76.342488,154Q72.5040393,154,69.5185783,150.659096Q66.53311777,147.318176,66.53311777,140.212116Q66.53311777,135.227268,67.8659127,130.24242Q69.1987078,125.25757200000001,70.5848141,121.121208Q72.7172875,114.333328,74.3166437,108.606056Q75.9159946,102.878782,75.9159946,97.681816Q75.9159946,94.075752,75.1163177,92.696969Q74.3166437,91.318179,73.0371585,91.318179Q71.6510525,91.318179,69.9983838,92.803025Q68.3457184,94.287876,66.74636507,97.363636L66,97.151512Q66.2132474,90.999998,68.66559,86.5454521Q71.1179328,82.0909076,74.8497581,79.6515155Q78.58158399999999,77.21211675,82.526663,77.21211675Q87.00485,77.21211675,90.203558,80.7651498Q93.40226200000001,84.3181767,93.40226200000001,93.015148Q93.40226200000001,97.575754,92.495968,102.5606Q91.589666,107.545452,90.416805,112.5303Q94.042006,111.045448,98.093704,110.409088Q102.145405,109.772724,106.73021299999999,109.772724L109.50243,109.772724Q110.88853499999999,104.46969,111.901463,99.325754Q112.914387,94.181816,112.914387,89.727271Q112.914387,88.136359,112.754452,86.757575Q112.594509,85.3787842,112.381268,84.10606L112.381268,83.2575746Q113.98061799999999,80.3939359,117.019398,78.6969652Q120.05816999999999,77,123.15025299999999,77Q126.668831,77,129.334415,79.2803016Q132,81.5606031,132,86.5454521Q132,90.25757,130.560585,96.090904Q129.121181,101.92423600000001,127.308567,108.075756Q125.176102,115.60606,123.416805,122.659081Q121.657516,129.712112,121.657516,134.5909Q121.657516,137.878784,122.723755,139.78787599999998Q123.789997,141.696968,126.135715,141.696968Q129.334415,141.696968,130.93377700000002,138.621208L131.57351699999998,138.939392Q131.46689600000002,143.393936,129.121181,146.78788Q126.775455,150.181816,123.310188,152.09089699999998Q119.844921,154,116.21971500000001,154Q113.021008,154,110.195484,152.356064Q107.36995300000001,150.712112,105.610657,147.21212Q103.851383,143.712105,103.851383,138.090904Q103.851383,134.37878,104.651054,129.977272Q105.450737,125.575752,106.51697200000001,121.015141Q101.612282,120.69695999999999,96.920843,120.69695999999999Q94.575125,120.69695999999999,92.442652,120.803024Q90.310181,120.909092,88.390957,121.121208Q87.431345,125.363632,86.73828900000001,129.446968Q86.045237,133.530293,86.045237,137.34848399999998Q86.045237,139.469692,86.311798,141.53788Q86.578356,143.606056,87.218096,145.515152Q85.512119,149.651505,82.473349,151.82574499999998Q79.434574,154,76.342488,154Z" fill="#FFFFFF" fill-opacity="1"/></g></svg>