<svg xmlns="http://www.w3.org/2000/svg" xmlns:xlink="http://www.w3.org/1999/xlink" fill="none" version="1.1" width="17" height="15.9375" viewBox="0 0 17 15.9375"><defs><clipPath id="master_svg0_1_2772"><rect x="0" y="0" width="17" height="15.9375" rx="0"/></clipPath></defs><g clip-path="url(#master_svg0_1_2772)"><g><g><path d="M1.4166259765625,5.65625L1.4166259765625,10.28125Q1.4166259765625,10.4286308,1.4310717955625,10.5753016Q1.4455176145625,10.7219725,1.4742701275625,10.8665199Q1.5030226485625,11.0110693,1.5458049665625,11.1521034Q1.5885872865625,11.2931376,1.6449873565625,11.4292984Q1.7013874665625,11.5654602,1.7708621965625,11.6954393Q1.8403369165624999,11.8254175,1.9222171265624999,11.9479599Q2.0040974065625,12.0705032,2.0975946165625,12.1844292Q2.1910918965625,12.2983561,2.2953056065625,12.4025698Q2.3995194465625,12.5067844,2.5134460765625,12.6002808Q2.6273727765625,12.693779,2.7499150765625,12.775658Q2.8724577765625,12.857538,3.0024358765625,12.927012Q3.1324138765625,12.996487,3.2685755765625,13.052887Q3.4047374765625,13.109287,3.5457718765625,13.152071Q3.6868061765625,13.194853,3.8313548765625,13.223605Q3.9759034765625,13.252358,4.1225743765625005,13.266805Q4.2692453765625,13.28125,4.4166259765625,13.28125L8.3332929765625,13.28125Q8.4806737765625,13.28125,8.6273450765625,13.266804Q8.7740154765625,13.252358,8.9185633765625,13.223605Q9.0631122765625,13.194853,9.2041468765625,13.15207Q9.3451809765625,13.109287,9.4813422765625,13.052887Q9.6175040765625,12.996487,9.7474822765625,12.927013Q9.8774604765625,12.857538,10.0000028765625,12.775658Q10.1225452765625,12.693779,10.2364721765625,12.6002808Q10.3503989765625,12.5067844,10.4546127765625,12.4025698Q10.5588264765625,12.2983561,10.6523236765625,12.1844292Q10.7458209765625,12.0705023,10.8277005765625,11.9479589Q10.9095821765625,11.8254166,10.9790563765625,11.6954384Q11.0485315765625,11.5654602,11.1049308765625,11.4292984Q11.1613311765625,11.2931376,11.2041139765625,11.1521034Q11.2468967765625,11.0110693,11.2756480765625,10.8665199Q11.3044013765625,10.7219725,11.3188476765625,10.5753012Q11.3332938765625,10.4286308,11.3332929765625,10.28125L11.3332929765625,5.65625Q11.3332938765625,5.5088694,11.3188476765625,5.3621984000000005Q11.3044013765625,5.2155275,11.2756480765625,5.0709786Q11.2468967765625,4.9264302,11.2041139765625,4.7853959Q11.1613311765625,4.6443615000000005,11.1049308765625,4.5081996Q11.0485315765625,4.3720379000000005,10.9790563765625,4.2420597Q10.9095821765625,4.1120818,10.8277005765625,3.9895391Q10.7458209765625,3.8669968,10.6523236765625,3.7530701Q10.5588264765625,3.63914347,10.4546127765625,3.53492963Q10.3503989765625,3.43071592,10.2364721765625,3.33721864Q10.1225452765625,3.2437213700000003,10.0000028765625,3.1618410900000002Q9.8774604765625,3.07996088,9.7474822765625,3.01048619Q9.6175040765625,2.94101149,9.4813422765625,2.88461138Q9.3451809765625,2.82821131,9.2041463765625,2.7854289899999998Q9.0631122765625,2.742646672,8.9185633765625,2.713894151Q8.7740154765625,2.685141638,8.6273450765625,2.670695819Q8.4806737765625,2.65625,8.3332929765625,2.65625L4.4166259765625,2.65625Q4.2692453765625,2.65625,4.1225743765625005,2.670695819Q3.9759034765625,2.685141638,3.8313545765625,2.713894151Q3.6868061765625,2.742646672,3.5457718765625,2.7854289899999998Q3.4047374765625,2.82821131,3.2685755765625,2.88461138Q3.1324138765625,2.94101149,3.0024356765625,3.0104862199999998Q2.8724577765625,3.07996094,2.7499150765625,3.16184115Q2.6273727765625,3.24372143,2.5134460765625,3.33721864Q2.3995194465625,3.43071592,2.2953056065625,3.53492963Q2.1910918965625,3.63914347,2.0975946165625,3.7530701Q2.0040973465625003,3.8669968,1.9222170665625,3.9895391Q1.8403368565625,4.1120818,1.7708621665625,4.2420599Q1.7013874665625,4.3720379000000005,1.6449873565625,4.5081996Q1.5885872865625,4.6443615000000005,1.5458049665625,4.7853959Q1.5030226485625,4.9264302,1.4742701275625,5.0709789Q1.4455176145625,5.2155275,1.4310717955625,5.3621984000000005Q1.4166259765625,5.5088694,1.4166259765625,5.65625ZM7.7916669765625,7.3046875Q7.8612632765625,7.3046875,7.9305247765625,7.2982926Q7.9997858765625,7.2918973,8.0680446765625,7.2791681Q8.1363038765625,7.2664394,8.2029027765625,7.2474985Q8.2695026765625,7.2285585,8.3338007765625,7.2035894Q8.398099876562501,7.1786208,8.4594788765625,7.1478639Q8.520856876562501,7.1171074,8.5787238765625,7.0808582Q8.6365918765625,7.0446091,8.6903905765625,7.0032172Q8.7441892765625,6.9618254,8.7934007765625,6.9156885Q8.8426131765625,6.8695526,8.886764476562501,6.8191156Q8.9309158765625,6.7686796,8.9695811765625,6.7144289Q9.008247376562501,6.6601782,9.0410546765625,6.6026361Q9.0738620765625,6.5450938,9.100495376562499,6.4848135Q9.1271295765625,6.4245338,9.1473321765625,6.3620968Q9.167534876562499,6.299659699999999,9.1811122765625,6.235666800000001Q9.1946902765625,6.171673999999999,9.201511876562499,6.106741700000001Q9.2083339765625,6.041809300000001,9.208333476562501,5.9765625Q9.2083339765625,5.9113162,9.201511876562499,5.846383599999999Q9.1946902765625,5.781451199999999,9.1811122765625,5.717458000000001Q9.167534876562499,5.653465300000001,9.1473321765625,5.5910282Q9.1271295765625,5.5285909,9.100495376562499,5.468310799999999Q9.0738620765625,5.408030999999999,9.0410546765625,5.3504887Q9.008247376562501,5.2929463000000005,8.9695811765625,5.2386956Q8.9309158765625,5.1844451,8.8867649765625,5.1340088999999995Q8.8426136765625,5.0835726,8.7934012765625,5.0374362Q8.7441892765625,4.9913001,8.6903905765625,4.949908000000001Q8.6365918765625,4.908515899999999,8.5787238765625,4.8722668Q8.520856876562501,4.8360178000000005,8.459478376562501,4.8052609Q8.398099876562501,4.7745037,8.3338007765625,4.7495348Q8.2695026765625,4.724565999999999,8.2029032765625,4.7056260000000005Q8.1363038765625,4.686686,8.0680441765625,4.6739569Q7.9997853765625,4.6612282,7.9305243765625,4.6548328Q7.8612632765625,4.6484376,7.7916669765625,4.6484375Q7.7220706765625,4.6484376,7.6528095765625,4.654833Q7.5835485765625,4.6612282,7.5152888765625,4.6739571Q7.4470300765625,4.686686,7.3804301765625,4.7056262Q7.3138303765625,4.7245665,7.2495317765625,4.7495351Q7.1852335765625,4.7745039,7.1238555765625,4.8052609Q7.0624770765625,4.8360181,7.0046090765625,4.8722668Q6.9467420765625,4.908515899999999,6.8929433765625,4.949908000000001Q6.8391446765625,4.9913001,6.7899322765625,5.0374362Q6.7407207765625,5.0835726,6.6965689765625,5.1340088999999995Q6.6524171765625,5.1844451,6.6137513765625,5.2386956Q6.5750856765625,5.2929463000000005,6.5422777765625,5.3504887Q6.5094704765625,5.408030999999999,6.4828366765625,5.468310799999999Q6.4562039765625,5.5285909,6.4360012765625,5.5910282Q6.4157986765625,5.653465300000001,6.4022206765625,5.717458199999999Q6.3886432765625,5.781451199999999,6.3818216765625,5.8463838Q6.3749999765625,5.9113162,6.3749999765625,5.9765625Q6.3749999765625,6.041809300000001,6.3818216765625,6.106741700000001Q6.3886432765625,6.171673800000001,6.4022206765625,6.2356665Q6.4157986765625,6.299659699999999,6.4360012765625,6.3620968Q6.4562039765625,6.4245341,6.4828366765625,6.4848137Q6.5094704765625,6.545094000000001,6.5422782765625,6.6026361Q6.5750856765625,6.6601782,6.6137509765625,6.7144289Q6.6524171765625,6.7686796,6.6965684765625,6.8191161Q6.7407202765625,6.8695526,6.7899317765625,6.9156885Q6.8391442765625,6.9618254,6.8929428765625,7.0032167Q6.9467420765625,7.0446091,7.0046086765625,7.0808578Q7.0624761765625,7.1171069,7.1238546765625,7.1478639Q7.1852330765625,7.1786208,7.2495312765625,7.2035894Q7.3138303765625,7.2285585,7.3804301765625,7.2474985Q7.4470295765625,7.266439,7.5152883765625,7.2791677Q7.5835480765625,7.2918968,7.6528091765625,7.2982922Q7.7220706765625,7.3046875,7.7916669765625,7.3046875ZM12.3959149765625,10.0936093L13.1332399765625,10.8309078C14.0115949765625,11.7092648,15.5834149765625,11.1265488,15.5834149765625,9.9225378L15.5834149765625,6.014635999999999C15.5834149765625,4.8106441,14.0115949765625,4.2279161,13.1332399765625,5.1062782L12.3959149765625,5.8435993L12.3959149765625,10.0936093Z" fill-rule="evenodd" fill="#FFFFFF" fill-opacity="1"/></g></g></g></svg>