<svg xmlns="http://www.w3.org/2000/svg" xmlns:xlink="http://www.w3.org/1999/xlink" fill="none" version="1.1" width="26" height="26" viewBox="0 0 26 26"><defs><clipPath id="master_svg0_4_03810"><rect x="0" y="0" width="26" height="26" rx="0"/></clipPath></defs><g clip-path="url(#master_svg0_4_03810)"><g><path d="M2.2995584,22.210763C1.5481565,22.7954125,1.961586,24,2.9136472,24L23.072031,24C24.025604,24,24.438099,22.7922356,23.683744,22.208921L19.804092,19.2089209C19.628939,19.073481008,19.41379,19,19.192379,19L6.769299,19C6.5468588,19,6.3307686,19.074164927,6.1552105,19.2107628L2.2995584,22.210763Z" fill="#D0D3DE" fill-opacity="1"/></g><g><path d="M13,2C17.418281,2,21.000004,5.5817227,21.000004,10.0000019C21.000004,14.418281,17.418253999999997,18.000004,13,18.000004C8.5817215,18.000004,5,14.418254,5,10.0000019C4.99999950364105,5.5817227,8.5817499,2,13,2ZM16.199994,11.5999851L9.8000045,11.5999851L9.8004265,11.6529083C9.8287005,13.395808,11.2503834,14.800009,12.999998999999999,14.800009C14.7673235,14.800009,16.199994,13.367309,16.199994,11.5999851Z" fill="#D0D3DE" fill-opacity="1" style="mix-blend-mode:passthrough"/></g></g></svg>