<svg xmlns="http://www.w3.org/2000/svg" xmlns:xlink="http://www.w3.org/1999/xlink" fill="none" version="1.1" width="16" height="16" viewBox="0 0 16 16"><defs><clipPath id="master_svg0_1_2546"><rect x="0" y="0" width="16" height="16" rx="0"/></clipPath></defs><g clip-path="url(#master_svg0_1_2546)"><g><path d="M13.6464,14.3536C13.8417,14.5488,14.1583,14.5488,14.3535,14.3536C14.5488,14.1583,14.5488,13.8417,14.3535,13.6465C14.3535,13.6465,13.6464,14.3536,13.6464,14.3536C13.6464,14.3536,13.6464,14.3536,13.6464,14.3536ZM11.4535303,10.7464504C11.2582703,10.5511904,10.94168,10.5511904,10.7464199,10.7464504C10.5511599,10.94172,10.5511599,11.2582998,10.7464199,11.4535599C10.7464199,11.4535599,11.4535303,10.7464504,11.4535303,10.7464504C11.4535303,10.7464504,11.4535303,10.7464504,11.4535303,10.7464504ZM12.1667,7.3333302C12.1667,10.0027103,10.0027103,12.1667,7.3333302,12.1667C7.3333302,12.1667,7.3333302,13.1667,7.3333302,13.1667C10.5549898,13.1667,13.1667,10.5549898,13.1667,7.3333302C13.1667,7.3333302,12.1667,7.3333302,12.1667,7.3333302C12.1667,7.3333302,12.1667,7.3333302,12.1667,7.3333302ZM7.3333302,12.1667C4.663959999999999,12.1667,2.5,10.0027103,2.5,7.3333302C2.5,7.3333302,1.5,7.3333302,1.5,7.3333302C1.5,10.5549898,4.11167,13.1667,7.3333302,13.1667C7.3333302,13.1667,7.3333302,12.1667,7.3333302,12.1667C7.3333302,12.1667,7.3333302,12.1667,7.3333302,12.1667ZM2.5,7.3333302C2.5,4.663959999999999,4.663959999999999,2.5,7.3333302,2.5C7.3333302,2.5,7.3333302,1.5,7.3333302,1.5C4.11167,1.5,1.5,4.11167,1.5,7.3333302C1.5,7.3333302,2.5,7.3333302,2.5,7.3333302C2.5,7.3333302,2.5,7.3333302,2.5,7.3333302ZM7.3333302,2.5C10.0027103,2.5,12.1667,4.663959999999999,12.1667,7.3333302C12.1667,7.3333302,13.1667,7.3333302,13.1667,7.3333302C13.1667,4.11167,10.5549898,1.5,7.3333302,1.5C7.3333302,1.5,7.3333302,2.5,7.3333302,2.5C7.3333302,2.5,7.3333302,2.5,7.3333302,2.5ZM14.3535,13.6465C14.3535,13.6465,11.4535303,10.7464504,11.4535303,10.7464504C11.4535303,10.7464504,10.7464199,11.4535599,10.7464199,11.4535599C10.7464199,11.4535599,13.6464,14.3536,13.6464,14.3536C13.6464,14.3536,14.3535,13.6465,14.3535,13.6465C14.3535,13.6465,14.3535,13.6465,14.3535,13.6465Z" fill="#090A0A" fill-opacity="1"/></g></g></svg>