<svg xmlns="http://www.w3.org/2000/svg" xmlns:xlink="http://www.w3.org/1999/xlink" fill="none" version="1.1" viewBox="0 0 19.50191879272461 19.5"><g><path d="M18.494862,13.4706C18.494862,13.4706,17.855263,13.0789,17.855263,13.0789C17.855263,13.0789,17.855263,13.0789,17.855263,13.0789C17.855263,13.0789,18.494862,13.4706,18.494862,13.4706C18.494862,13.4706,18.494862,13.4706,18.494862,13.4706ZM17.540361,15.0294C17.540361,15.0294,18.179962,15.4211,18.179962,15.4211C18.179962,15.4211,18.179962,15.4211,18.179962,15.4211C18.179962,15.4211,17.540361,15.0294,17.540361,15.0294C17.540361,15.0294,17.540361,15.0294,17.540361,15.0294ZM1.0070534,6.0294199C1.0070534,6.0294199,0.36744237,5.6377501,0.36744237,5.6377501C0.36744237,5.6377501,0.36744237,5.6377501,0.36744237,5.6377501C0.36744237,5.6377501,1.0070534,6.0294199,1.0070534,6.0294199C1.0070534,6.0294199,1.0070534,6.0294199,1.0070534,6.0294199ZM1.9616023,4.4705701C1.9616023,4.4705701,2.6012123,4.8622298,2.6012123,4.8622298C2.6012123,4.8622298,2.6012123,4.8622298,2.6012123,4.8622298C2.6012123,4.8622298,1.9616023,4.4705701,1.9616023,4.4705701C1.9616023,4.4705701,1.9616023,4.4705701,1.9616023,4.4705701ZM4.5694823,3.8117199C4.5694823,3.8117199,4.9280624,3.1530001,4.9280624,3.1530001C4.9280624,3.1530001,4.9280624,3.1530001,4.9280624,3.1530001C4.9280624,3.1530001,4.5694823,3.8117199,4.5694823,3.8117199C4.5694823,3.8117199,4.5694823,3.8117199,4.5694823,3.8117199ZM1.7058314,8.4882603C1.7058314,8.4882603,1.3472494,9.1469898,1.3472494,9.1469898C1.3472494,9.1469898,1.3472494,9.1469898,1.3472494,9.1469898C1.3472494,9.1469898,1.7058314,8.4882603,1.7058314,8.4882603C1.7058314,8.4882603,1.7058314,8.4882603,1.7058314,8.4882603ZM14.932463,15.6883C14.932463,15.6883,14.573862,16.347,14.573862,16.347C14.573862,16.347,14.573862,16.347,14.573862,16.347C14.573862,16.347,14.932463,15.6883,14.932463,15.6883C14.932463,15.6883,14.932463,15.6883,14.932463,15.6883ZM17.796062,11.0117C17.796062,11.0117,17.437563,11.6704,17.437563,11.6704C17.437563,11.6704,17.437563,11.6705,17.437563,11.6705C17.437563,11.6705,17.796062,11.0117,17.796062,11.0117C17.796062,11.0117,17.796062,11.0117,17.796062,11.0117ZM1.9616023,15.0294C1.9616023,15.0294,1.3219904,15.4211,1.3219904,15.4211C1.3219904,15.4211,1.3219904,15.4211,1.3219904,15.4211C1.3219904,15.4211,1.9616023,15.0294,1.9616023,15.0294C1.9616023,15.0294,1.9616023,15.0294,1.9616023,15.0294ZM1.0070513,13.4706C1.0070513,13.4706,1.6466624,13.0789,1.6466624,13.0789C1.6466624,13.0789,1.6466624,13.0789,1.6466624,13.0789C1.6466624,13.0789,1.0070513,13.4706,1.0070513,13.4706C1.0070513,13.4706,1.0070513,13.4706,1.0070513,13.4706ZM17.540361,4.4705801C17.540361,4.4705801,18.179962,4.0789199,18.179962,4.0789199C18.179962,4.0789199,18.179962,4.0789199,18.179962,4.0789199C18.179962,4.0789199,17.540361,4.4705801,17.540361,4.4705801C17.540361,4.4705801,17.540361,4.4705801,17.540361,4.4705801ZM18.494862,6.0294299C18.494862,6.0294299,17.855263,6.4210901,17.855263,6.4210901C17.855263,6.4210901,17.855263,6.4210901,17.855263,6.4210901C17.855263,6.4210901,18.494862,6.0294299,18.494862,6.0294299C18.494862,6.0294299,18.494862,6.0294299,18.494862,6.0294299ZM17.796062,8.4882803C17.796062,8.4882803,18.154663,9.1470003,18.154663,9.1470003C18.154663,9.1470003,18.154663,9.1470003,18.154663,9.1470003C18.154663,9.1470003,17.796062,8.4882803,17.796062,8.4882803C17.796062,8.4882803,17.796062,8.4882803,17.796062,8.4882803ZM14.932463,3.8117399C14.932463,3.8117399,15.291062,4.4704599,15.291062,4.4704599C15.291062,4.4704599,15.291062,4.4704599,15.291062,4.4704599C15.291062,4.4704599,14.932463,3.8117399,14.932463,3.8117399C14.932463,3.8117399,14.932463,3.8117399,14.932463,3.8117399ZM1.7058303,11.0117C1.7058303,11.0117,2.0644124,11.6705,2.0644124,11.6705C2.0644124,11.6705,2.0644124,11.6705,2.0644124,11.6705C2.0644124,11.6705,1.7058303,11.0117,1.7058303,11.0117C1.7058303,11.0117,1.7058303,11.0117,1.7058303,11.0117ZM4.5694723,15.6883C4.5694723,15.6883,4.2109022,15.0295,4.2109022,15.0295C4.2109022,15.0295,4.2108922,15.0295,4.2108922,15.0295C4.2108922,15.0295,4.5694723,15.6883,4.5694723,15.6883C4.5694723,15.6883,4.5694723,15.6883,4.5694723,15.6883ZM14.830962,3.8669801C14.830962,3.8669801,14.472363,3.20825,14.472363,3.20825C14.472363,3.20825,14.472363,3.20825,14.472363,3.20825C14.472363,3.20825,14.830962,3.8669801,14.830962,3.8669801C14.830962,3.8669801,14.830962,3.8669801,14.830962,3.8669801ZM4.6709623,3.8669701C4.6709623,3.8669701,4.3123822,4.5256901,4.3123822,4.5256901C4.3123822,4.5256901,4.3123822,4.5256901,4.3123822,4.5256901C4.3123822,4.5256901,4.6709623,3.8669701,4.6709623,3.8669701C4.6709623,3.8669701,4.6709623,3.8669701,4.6709623,3.8669701ZM14.830962,15.633C14.830962,15.633,15.189563,14.9743,15.189563,14.9743C15.189563,14.9743,15.189563,14.9743,15.189563,14.9743C15.189563,14.9743,14.830962,15.633,14.830962,15.633C14.830962,15.633,14.830962,15.633,14.830962,15.633ZM4.6709623,15.633C4.6709623,15.633,5.0295424,16.2918,5.0295424,16.2918C5.0295424,16.2918,5.0295424,16.2918,5.0295424,16.2918C5.0295424,16.2918,4.6709623,15.633,4.6709623,15.633C4.6709623,15.633,4.6709623,15.633,4.6709623,15.633ZM8.7964125,1.5C8.7964125,1.5,10.705512,1.5,10.705512,1.5C10.705512,1.5,10.705512,0,10.705512,0C10.705512,0,8.7964125,0,8.7964125,0C8.7964125,0,8.7964125,1.5,8.7964125,1.5C8.7964125,1.5,8.7964125,1.5,8.7964125,1.5ZM10.705512,18C10.705512,18,8.7964125,18,8.7964125,18C8.7964125,18,8.7964125,19.5,8.7964125,19.5C8.7964125,19.5,10.705512,19.5,10.705512,19.5C10.705512,19.5,10.705512,18,10.705512,18C10.705512,18,10.705512,18,10.705512,18ZM8.7964125,18C8.1140728,18,7.6373124,17.488899,7.6373124,16.950001C7.6373124,16.950001,6.1373124,16.950001,6.1373124,16.950001C6.1373124,18.3993,7.3700223,19.5,8.7964125,19.5C8.7964125,19.5,8.7964125,18,8.7964125,18C8.7964125,18,8.7964125,18,8.7964125,18ZM11.864562,16.950001C11.864562,17.488899,11.387862,18,10.705512,18C10.705512,18,10.705512,19.5,10.705512,19.5C12.131863,19.5,13.364562,18.3993,13.364562,16.950001C13.364562,16.950001,11.864562,16.950001,11.864562,16.950001C11.864562,16.950001,11.864562,16.950001,11.864562,16.950001ZM10.705512,1.5C11.387862,1.5,11.864562,2.01107,11.864562,2.55C11.864562,2.55,13.364562,2.55,13.364562,2.55C13.364562,1.100706,12.131863,0,10.705512,0C10.705512,0,10.705512,1.5,10.705512,1.5C10.705512,1.5,10.705512,1.5,10.705512,1.5ZM8.7964125,0C7.3700223,0,6.1373124,1.1007071,6.1373124,2.55C6.1373124,2.55,7.6373124,2.55,7.6373124,2.55C7.6373124,2.01107,8.1140728,1.5,8.7964125,1.5C8.7964125,1.5,8.7964125,0,8.7964125,0C8.7964125,0,8.7964125,0,8.7964125,0ZM17.855263,13.0789C17.855263,13.0789,16.900763,14.6378,16.900763,14.6378C16.900763,14.6378,18.179962,15.4211,18.179962,15.4211C18.179962,15.4211,19.134462,13.8622,19.134462,13.8622C19.134462,13.8622,17.855263,13.0789,17.855263,13.0789C17.855263,13.0789,17.855263,13.0789,17.855263,13.0789ZM1.6466633,6.4210801C1.6466633,6.4210801,2.6012123,4.8622298,2.6012123,4.8622298C2.6012123,4.8622298,1.3219913,4.0789099,1.3219913,4.0789099C1.3219913,4.0789099,0.36744237,5.6377501,0.36744237,5.6377501C0.36744237,5.6377501,1.6466633,6.4210801,1.6466633,6.4210801C1.6466633,6.4210801,1.6466633,6.4210801,1.6466633,6.4210801ZM2.6012123,4.8622298C2.9098523,4.3582001,3.6315124,4.1550598,4.2108922,4.4704499C4.2108922,4.4704499,4.9280624,3.1530001,4.9280624,3.1530001C3.6812325,2.4742801,2.0677223,2.8610899,1.3219913,4.0789099C1.3219913,4.0789099,2.6012123,4.8622298,2.6012123,4.8622298C2.6012123,4.8622298,2.6012123,4.8622298,2.6012123,4.8622298ZM2.0644124,7.8295398C1.5084244,7.5268798,1.3552604,6.8969598,1.6466633,6.4210801C1.6466633,6.4210801,0.36744237,5.6377501,0.36744237,5.6377501C-0.39551765,6.8837299,0.077024356,8.4555302,1.3472494,9.1469898C1.3472494,9.1469898,2.0644124,7.8295398,2.0644124,7.8295398C2.0644124,7.8295398,2.0644124,7.8295398,2.0644124,7.8295398ZM16.900763,14.6378C16.592062,15.1418,15.870462,15.3449,15.291062,15.0295C15.291062,15.0295,14.573862,16.347,14.573862,16.347C15.820662,17.0257,17.434162,16.638901,18.179962,15.4211C18.179962,15.4211,16.900763,14.6378,16.900763,14.6378C16.900763,14.6378,16.900763,14.6378,16.900763,14.6378ZM19.134462,13.8622C19.897463,12.6163,19.424862,11.0445,18.154663,10.353C18.154663,10.353,17.437563,11.6705,17.437563,11.6705C17.993462,11.9731,18.146662,12.603,17.855263,13.0789C17.855263,13.0789,19.134462,13.8622,19.134462,13.8622C19.134462,13.8622,19.134462,13.8622,19.134462,13.8622ZM2.6012123,14.6378C2.6012123,14.6378,1.6466624,13.0789,1.6466624,13.0789C1.6466624,13.0789,0.36744136,13.8622,0.36744136,13.8622C0.36744136,13.8622,1.3219904,15.4211,1.3219904,15.4211C1.3219904,15.4211,2.6012123,14.6378,2.6012123,14.6378C2.6012123,14.6378,2.6012123,14.6378,2.6012123,14.6378ZM16.900763,4.8622499C16.900763,4.8622499,17.855263,6.4210901,17.855263,6.4210901C17.855263,6.4210901,19.134462,5.6377702,19.134462,5.6377702C19.134462,5.6377702,18.179962,4.0789199,18.179962,4.0789199C18.179962,4.0789199,16.900763,4.8622499,16.900763,4.8622499C16.900763,4.8622499,16.900763,4.8622499,16.900763,4.8622499ZM17.855263,6.4210901C18.146662,6.8969698,17.993462,7.5268898,17.437563,7.8295498C17.437563,7.8295498,18.154663,9.1470003,18.154663,9.1470003C19.424862,8.4555397,19.897463,6.8837399,19.134462,5.6377702C19.134462,5.6377702,17.855263,6.4210901,17.855263,6.4210901C17.855263,6.4210901,17.855263,6.4210901,17.855263,6.4210901ZM15.291062,4.4704599C15.870462,4.1550698,16.592062,4.3582201,16.900763,4.8622499C16.900763,4.8622499,18.179962,4.0789199,18.179962,4.0789199C17.434162,2.8611,15.820662,2.4742899,14.573862,3.1530099C14.573862,3.1530099,15.291062,4.4704599,15.291062,4.4704599C15.291062,4.4704599,15.291062,4.4704599,15.291062,4.4704599ZM1.6466624,13.0789C1.3552583,12.603,1.5084233,11.9731,2.0644124,11.6705C2.0644124,11.6705,1.3472483,10.35301,1.3472483,10.35301C0.077022359,11.0445,-0.39551765,12.6163,0.36744136,13.8622C0.36744136,13.8622,1.6466624,13.0789,1.6466624,13.0789C1.6466624,13.0789,1.6466624,13.0789,1.6466624,13.0789ZM1.3219904,15.4211C2.0677123,16.638901,3.6812325,17.0257,4.9280624,16.347C4.9280624,16.347,4.2108922,15.0295,4.2108922,15.0295C3.6315124,15.3449,2.9098523,15.1418,2.6012123,14.6378C2.6012123,14.6378,1.3219904,15.4211,1.3219904,15.4211C1.3219904,15.4211,1.3219904,15.4211,1.3219904,15.4211ZM15.189563,4.5257001C15.189563,4.5257001,15.291062,4.4704599,15.291062,4.4704599C15.291062,4.4704599,14.573862,3.1530099,14.573862,3.1530099C14.573862,3.1530099,14.472363,3.20825,14.472363,3.20825C14.472363,3.20825,15.189563,4.5257001,15.189563,4.5257001C15.189563,4.5257001,15.189563,4.5257001,15.189563,4.5257001ZM4.2108922,4.4704499C4.2108922,4.4704499,4.3123822,4.5256901,4.3123822,4.5256901C4.3123822,4.5256901,5.0295424,3.20824,5.0295424,3.20824C5.0295424,3.20824,4.9280624,3.1530001,4.9280624,3.1530001C4.9280624,3.1530001,4.2108922,4.4704499,4.2108922,4.4704499C4.2108922,4.4704499,4.2108922,4.4704499,4.2108922,4.4704499ZM15.291062,15.0295C15.291062,15.0295,15.189563,14.9743,15.189563,14.9743C15.189563,14.9743,14.472363,16.2917,14.472363,16.2917C14.472363,16.2917,14.573862,16.347,14.573862,16.347C14.573862,16.347,15.291062,15.0295,15.291062,15.0295C15.291062,15.0295,15.291062,15.0295,15.291062,15.0295ZM4.3123822,14.9743C4.3123822,14.9743,4.2109022,15.0295,4.2109022,15.0295C4.2109022,15.0295,4.9280524,16.347,4.9280524,16.347C4.9280524,16.347,5.0295424,16.2918,5.0295424,16.2918C5.0295424,16.2918,4.3123822,14.9743,4.3123822,14.9743C4.3123822,14.9743,4.3123822,14.9743,4.3123822,14.9743ZM1.3472494,9.1469898C1.8250023,9.4070501,1.8250023,10.09295,1.3472483,10.35301C1.3472483,10.35301,2.0644124,11.6705,2.0644124,11.6705C3.5859423,10.8422,3.5859423,8.6577902,2.0644124,7.8295398C2.0644124,7.8295398,1.3472494,9.1469898,1.3472494,9.1469898C1.3472494,9.1469898,1.3472494,9.1469898,1.3472494,9.1469898ZM5.0295424,16.2918C5.5289426,16.019899,6.1373124,16.381399,6.1373124,16.950001C6.1373124,16.950001,7.6373124,16.950001,7.6373124,16.950001C7.6373124,15.2434,5.8113122,14.1584,4.3123822,14.9743C4.3123822,14.9743,5.0295424,16.2918,5.0295424,16.2918C5.0295424,16.2918,5.0295424,16.2918,5.0295424,16.2918ZM13.364562,16.950001C13.364562,16.381399,13.972962,16.019899,14.472363,16.2917C14.472363,16.2917,15.189563,14.9743,15.189563,14.9743C13.690662,14.1583,11.864562,15.2434,11.864562,16.950001C11.864562,16.950001,13.364562,16.950001,13.364562,16.950001C13.364562,16.950001,13.364562,16.950001,13.364562,16.950001ZM18.154663,10.353C17.676962,10.09294,17.676962,9.4070597,18.154663,9.1470003C18.154663,9.1470003,17.437563,7.8295498,17.437563,7.8295498C15.915962,8.6577997,15.915962,10.8422,17.437563,11.6704C17.437563,11.6704,18.154663,10.353,18.154663,10.353C18.154663,10.353,18.154663,10.353,18.154663,10.353ZM4.3123822,4.5256901C5.8113122,5.34165,7.6373124,4.2566299,7.6373124,2.55C7.6373124,2.55,6.1373124,2.55,6.1373124,2.55C6.1373124,3.1185999,5.5289426,3.4800999,5.0295424,3.20824C5.0295424,3.20824,4.3123822,4.5256901,4.3123822,4.5256901C4.3123822,4.5256901,4.3123822,4.5256901,4.3123822,4.5256901ZM14.472363,3.20825C13.972962,3.4801099,13.364562,3.1186099,13.364562,2.55C13.364562,2.55,11.864562,2.55,11.864562,2.55C11.864562,4.2566299,13.690662,5.34166,15.189563,4.5257001C15.189563,4.5257001,14.472363,3.20825,14.472363,3.20825C14.472363,3.20825,14.472363,3.20825,14.472363,3.20825ZM12.000962,9.75C12.000962,10.9926,10.993563,12,9.7509727,12C9.7509727,12,9.7509727,13.5,9.7509727,13.5C11.822062,13.5,13.500962,11.8211,13.500962,9.75C13.500962,9.75,12.000962,9.75,12.000962,9.75C12.000962,9.75,12.000962,9.75,12.000962,9.75ZM9.7509727,12C8.5083323,12,7.5009723,10.9926,7.5009723,9.75C7.5009723,9.75,6.0009723,9.75,6.0009723,9.75C6.0009723,11.8211,7.6799026,13.5,9.7509727,13.5C9.7509727,13.5,9.7509727,12,9.7509727,12C9.7509727,12,9.7509727,12,9.7509727,12ZM7.5009723,9.75C7.5009723,8.5073605,8.5083323,7.5,9.7509727,7.5C9.7509727,7.5,9.7509727,6,9.7509727,6C7.6799026,6,6.0009723,7.6789298,6.0009723,9.75C6.0009723,9.75,7.5009723,9.75,7.5009723,9.75C7.5009723,9.75,7.5009723,9.75,7.5009723,9.75ZM9.7509727,7.5C10.993563,7.5,12.000962,8.5073605,12.000962,9.75C12.000962,9.75,13.500962,9.75,13.500962,9.75C13.500962,7.6789298,11.822062,6,9.7509727,6C9.7509727,6,9.7509727,7.5,9.7509727,7.5C9.7509727,7.5,9.7509727,7.5,9.7509727,7.5Z" fill="#333333" fill-opacity="1"/></g></svg>